<?xml version="1.0"?><svg xmlns="http://www.w3.org/2000/svg" xmlns:xlink= "http://www.w3.org/1999/xlink" style="background: white;" width="1500" height="185"> <g style="color: black; font-size: 13px; font-family: sans-serif; transform: translate(18px, 25px);"><g><circle r="3" cx="-6" cy="-5" style="fill: #B6509E" /><text>Borrow APR, variable</text></g><g style="transform: translateX(150px);"><circle r="3" cx="-6" cy="-5" style="fill: rgb(231, 198, 223)" /><text>Borrow APR, stable</text></g><g style="transform: translateX(290px);"><circle r="3" cx="-6" cy="-5" style="fill: rgb(0, 98, 210)" /><text>Utilization Rate</text></g></g><g class="visx-group" transform="translate(40, 50)"><g class="visx-group visx-rows" transform="translate(0, 0)"><line class="visx-line" x1="0" y1="115" x2="1450" y2="115" fill="transparent" shape-rendering="crispEdges" stroke="#000" stroke-width="1" stroke-dasharray="3,3" pointer-events="none"></line><line class="visx-line" x1="0" y1="73.92857142857142" x2="1450" y2="73.92857142857142" fill="transparent" shape-rendering="crispEdges" stroke="#000" stroke-width="1" stroke-dasharray="3,3" pointer-events="none"></line><line class="visx-line" x1="0" y1="32.857142857142854" x2="1450" y2="32.857142857142854" fill="transparent" shape-rendering="crispEdges" stroke="#000" stroke-width="1" stroke-dasharray="3,3" pointer-events="none"></line></g><path class="visx-linepath" d="M0,114.17857142823259C2.4166666666666665,114.12209821408806,4.833333333333334,114.06562499994352,7.25,114.00915178571428C9.666666666666666,113.95267857148504,12.083333333333334,113.89620535714286,14.5,113.83973214285714C16.916666666666668,113.78325892857143,19.333333333333332,113.72678571428571,21.75,113.6703125C24.166666666666668,113.61383928571428,26.583333333333332,113.55736607142858,29,113.50089285714286C31.416666666666668,113.44441964285714,33.833333333333336,113.38794642857142,36.25,113.33147321428571C38.666666666666664,113.27499999999999,41.083333333333336,113.21852678571429,43.5,113.16205357142857C45.91666666666667,113.10558035714286,48.333333333333336,113.04910714285714,50.75000000000001,112.99263392857142C53.16666666666667,112.9361607142857,55.583333333333336,112.8796875,58,112.82321428571429C60.416666666666664,112.76674107142857,62.833333333333336,112.71026785714285,65.25,112.65379464285714C67.66666666666667,112.59732142857142,70.08333333333333,112.54084821428572,72.5,112.484375C74.91666666666667,112.42790178571428,77.33333333333333,112.37142857142857,79.75,112.31495535714285C82.16666666666667,112.25848214285713,84.58333333333333,112.20200892857143,87,112.14553571428571C89.41666666666667,112.0890625,91.83333333333333,112.03258928571428,94.25,111.97611607142856C96.66666666666667,111.91964285714285,99.08333333333334,111.86316964285714,101.50000000000001,111.80669642857143C103.91666666666667,111.75022321428571,106.33333333333334,111.69375,108.75,111.63727678571428C111.16666666666667,111.58080357142856,113.58333333333333,111.52433035714286,116,111.46785714285714C118.41666666666667,111.41138392857142,120.83333333333334,111.35491071428571,123.25000000000001,111.29843749999999C125.66666666666667,111.24196428571427,128.08333333333334,111.18549107142857,130.5,111.12901785714286C132.91666666666666,111.07254464285714,135.33333333333334,111.01607142857142,137.75,110.9595982142857C140.16666666666666,110.90312499999999,142.58333333333334,110.84665178571429,145,110.79017857142857C147.41666666666666,110.73370535714285,149.83333333333334,110.67723214285714,152.25,110.62075892857142C154.66666666666666,110.5642857142857,157.08333333333334,110.5078125,159.5,110.45133928571428C161.91666666666666,110.39486607142857,164.33333333333334,110.33839285714285,166.75,110.28191964285713C169.16666666666666,110.22544642857142,171.58333333333334,110.16897321428571,174,110.1125C176.41666666666666,110.05602678571428,178.83333333333334,109.99955357142856,181.25,109.94308035714285C183.66666666666666,109.88660714285713,186.08333333333334,109.83013392857143,188.5,109.77366071428571C190.91666666666666,109.7171875,193.33333333333334,109.66071428571428,195.75,109.60424107142856C198.16666666666669,109.54776785714284,200.58333333333334,109.49129464285714,203.00000000000003,109.43482142857142C205.41666666666669,109.37834821428571,207.83333333333331,109.32187499999999,210.24999999999997,109.26540178571427C212.66666666666666,109.20892857142856,215.08333333333331,109.15245535714286,217.5,109.09598214285714C219.91666666666666,109.03950892857142,222.33333333333334,108.9830357142857,224.75,108.92656249999999C227.16666666666666,108.87008928571427,229.58333333333334,108.81361607142857,232,108.75714285714285C234.41666666666666,108.70066964285714,236.83333333333334,108.64419642857143,239.25,108.58772321428572C241.66666666666669,108.53125,244.08333333333334,108.47477678571428,246.50000000000003,108.41830357142857C248.91666666666669,108.36183035714285,251.33333333333331,108.30535714285715,253.74999999999997,108.24888392857143C256.16666666666663,108.19241071428571,258.5833333333333,108.1359375,261,108.07946428571428C263.4166666666667,108.02299107142856,265.8333333333333,107.96651785714286,268.25,107.91004464285714C270.6666666666667,107.85357142857143,273.0833333333333,107.79709821428573,275.5,107.74062500000001C277.9166666666667,107.68415178571429,280.3333333333333,107.62767857142858,282.75,107.57120535714286C285.1666666666667,107.51473214285714,287.5833333333333,107.45825892857144,290,107.40178571428572C292.4166666666667,107.3453125,294.8333333333333,107.28883928571429,297.25,107.23236607142857C299.6666666666667,107.17589285714286,302.0833333333333,107.11941964285715,304.5,107.06294642857144C306.9166666666667,107.00647321428572,309.3333333333333,106.95,311.75,106.89352678571429C314.1666666666667,106.83705357142857,316.5833333333333,106.78058035714287,319,106.72410714285715C321.4166666666667,106.66763392857143,323.8333333333333,106.61116071428572,326.25,106.5546875C328.6666666666667,106.49821428571428,331.0833333333333,106.44174107142858,333.5,106.38526785714286C335.9166666666667,106.32879464285715,338.3333333333333,106.27232142857143,340.75,106.21584821428571C343.1666666666667,106.159375,345.5833333333333,106.1029017857143,348,106.04642857142858C350.4166666666667,105.98995535714286,352.8333333333333,105.93348214285714,355.25,105.87700892857143C357.6666666666667,105.82053571428571,360.0833333333333,105.76406250000001,362.5,105.70758928571429C364.9166666666667,105.65111607142858,367.3333333333333,105.59464285714286,369.75,105.53816964285714C372.1666666666667,105.48169642857142,374.5833333333333,105.42522321428572,377,105.36875C379.4166666666667,105.31227678571429,381.8333333333333,105.25580357142857,384.25,105.19933035714286C386.6666666666667,105.14285714285714,389.0833333333333,105.08638392857144,391.5,105.02991071428572C393.9166666666667,104.9734375,396.33333333333337,104.91696428571429,398.75000000000006,104.86049107142857C401.16666666666674,104.80401785714285,403.58333333333337,104.74754464285715,406.00000000000006,104.69107142857143C408.4166666666667,104.63459821428572,410.8333333333333,104.578125,413.24999999999994,104.52165178571428C415.66666666666663,104.46517857142857,418.08333333333326,104.40870535714286,420.49999999999994,104.35223214285715C422.91666666666663,104.29575892857143,425.3333333333333,104.23928571428571,427.75,104.1828125C430.1666666666667,104.12633928571428,432.5833333333333,104.06986607142858,435,104.01339285714286C437.4166666666667,103.95691964285714,439.8333333333333,103.90044642857143,442.25,103.84397321428571C444.6666666666667,103.7875,447.0833333333333,103.73102678571429,449.5,103.67455357142858C451.9166666666667,103.61808035714286,454.3333333333333,103.56160714285716,456.75,103.50513392857144C459.1666666666667,103.44866071428572,461.5833333333333,103.3921875,464,103.33571428571429C466.4166666666667,103.27924107142857,468.8333333333333,103.22276785714286,471.25,103.16629464285714C473.6666666666667,103.10982142857142,476.0833333333333,103.05334821428572,478.5,102.996875C480.9166666666667,102.94040178571429,483.33333333333337,102.88392857142858,485.75000000000006,102.82745535714287C488.16666666666674,102.77098214285715,490.58333333333337,102.71450892857143,493.00000000000006,102.65803571428572C495.4166666666667,102.6015625,497.8333333333333,102.54508928571428,500.24999999999994,102.48861607142857C502.66666666666663,102.43214285714285,505.08333333333326,102.37566964285715,507.49999999999994,102.31919642857143C509.91666666666663,102.26272321428571,512.3333333333333,102.20625,514.75,102.14977678571428C517.1666666666666,102.09330357142856,519.5833333333334,102.03683035714286,522,101.98035714285714C524.4166666666666,101.92388392857143,526.8333333333334,101.86741071428573,529.25,101.81093750000001C531.6666666666666,101.75446428571429,534.0833333333334,101.69799107142858,536.5,101.64151785714286C538.9166666666666,101.58504464285714,541.3333333333334,101.52857142857144,543.75,101.47209821428572C546.1666666666666,101.415625,548.5833333333334,101.35915178571429,551,101.30267857142857C553.4166666666666,101.24620535714286,555.8333333333334,101.18973214285714,558.25,101.13325892857142C560.6666666666666,101.0767857142857,563.0833333333334,101.0203125,565.5,100.96383928571429C567.9166666666666,100.90736607142857,570.3333333333334,100.85089285714287,572.75,100.79441964285715C575.1666666666666,100.73794642857143,577.5833333333334,100.68147321428572,580,100.625C582.4166666666666,100.56852678571428,584.8333333333334,100.51205357142857,587.25,100.45558035714285C589.6666666666666,100.39910714285713,592.0833333333334,100.34263392857143,594.5,100.28616071428571C596.9166666666666,100.2296875,599.3333333333334,100.1732142857143,601.75,100.11674107142858C604.1666666666666,100.06026785714286,606.5833333333334,100.00379464285714,609,99.94732142857143C611.4166666666666,99.89084821428571,613.8333333333334,99.834375,616.25,99.77790178571428C618.6666666666666,99.72142857142856,621.0833333333334,99.66495535714286,623.5,99.60848214285714C625.9166666666666,99.55200892857142,628.3333333333334,99.49553571428572,630.75,99.4390625C633.1666666666666,99.38258928571429,635.5833333333334,99.32611607142857,638,99.26964285714286C640.4166666666666,99.21316964285714,642.8333333333334,99.15669642857142,645.25,99.1002232142857C647.6666666666666,99.04374999999999,650.0833333333334,98.98727678571429,652.5,98.93080357142857C654.9166666666666,98.87433035714285,657.3333333333334,98.81785714285715,659.75,98.76138392857143C662.1666666666666,98.70491071428572,664.5833333333334,98.6484375,667,98.59196428571428C669.4166666666666,98.53549107142857,671.8333333333334,98.47901785714285,674.25,98.42254464285713C676.6666666666666,98.36607142857142,679.0833333333334,98.30959821428571,681.5,98.253125C683.9166666666666,98.19665178571428,686.3333333333334,98.14017857142858,688.75,98.08370535714286C691.1666666666666,98.02723214285714,693.5833333333334,97.97075892857143,696,97.91428571428571C698.4166666666666,97.8578125,700.8333333333334,97.80133928571428,703.25,97.74486607142856C705.6666666666666,97.68839285714284,708.0833333333334,97.63191964285714,710.5,97.57544642857142C712.9166666666666,97.51897321428571,715.3333333333334,97.4625,717.75,97.40602678571429C720.1666666666666,97.34955357142857,722.5833333333334,97.29308035714286,725,97.23660714285714C727.4166666666666,97.18013392857142,729.8333333333334,97.1236607142857,732.25,97.06718749999999C734.6666666666666,97.01071428571427,737.0833333333334,96.95424107142857,739.5,96.89776785714285C741.9166666666666,96.84129464285714,744.3333333333334,96.78482142857143,746.75,96.72834821428572C749.1666666666666,96.671875,751.5833333333334,96.61540178571428,754,96.55892857142857C756.4166666666666,96.50245535714285,758.8333333333334,96.44598214285713,761.25,96.38950892857142C763.6666666666666,96.3330357142857,766.0833333333334,96.2765625,768.5,96.22008928571428C770.9166666666666,96.16361607142856,773.3333333333334,96.10714285714286,775.75,96.05066964285714C778.1666666666666,95.99419642857143,780.5833333333334,95.93772321428571,783,95.88125C785.4166666666667,95.82477678571428,787.8333333333334,95.76830357142858,790.2500000000001,95.71183035714286C792.6666666666667,95.65535714285714,795.0833333333335,95.59888392857142,797.5000000000001,95.54241071428571C799.9166666666667,95.48593749999999,802.3333333333335,95.42946428571429,804.7500000000001,95.37299107142857C807.1666666666667,95.31651785714286,809.5833333333335,95.26004464285714,812.0000000000001,95.20357142857142C814.4166666666667,95.1470982142857,816.8333333333333,95.090625,819.2499999999999,95.03415178571429C821.6666666666665,94.97767857142857,824.0833333333333,94.92120535714285,826.4999999999999,94.86473214285714C828.9166666666665,94.80825892857142,831.3333333333333,94.75178571428572,833.7499999999999,94.6953125C836.1666666666665,94.63883928571428,838.5833333333333,94.58236607142857,840.9999999999999,94.52589285714285C843.4166666666666,94.46941964285713,845.8333333333333,94.41294642857143,848.25,94.35647321428571C850.6666666666666,94.3,853.0833333333334,94.24352678571428,855.5,94.18705357142856C857.9166666666666,94.13058035714285,860.3333333333334,94.07410714285714,862.75,94.01763392857143C865.1666666666666,93.96116071428571,867.5833333333334,93.9046875,870,93.84821428571428C872.4166666666666,93.79174107142856,874.8333333333334,93.73526785714286,877.25,93.67879464285714C879.6666666666666,93.62232142857142,882.0833333333334,93.56584821428571,884.5,93.50937499999999C886.9166666666666,93.45290178571427,889.3333333333334,93.39642857142857,891.75,93.33995535714286C894.1666666666666,93.28348214285714,896.5833333333334,93.22700892857144,899,93.17053571428572C901.4166666666666,93.1140625,903.8333333333334,93.05758928571429,906.25,93.00111607142857C908.6666666666666,92.94464285714285,911.0833333333334,92.88816964285715,913.5,92.83169642857143C915.9166666666666,92.77522321428572,918.3333333333334,92.71875,920.75,92.66227678571428C923.1666666666666,92.60580357142857,925.5833333333334,92.54933035714286,928,92.49285714285715C930.4166666666666,92.43638392857143,932.8333333333334,92.37991071428573,935.25,92.32343750000001C937.6666666666666,92.2669642857143,940.0833333333334,92.21049107142858,942.5,92.15401785714286C944.9166666666666,92.09754464285714,947.3333333333334,92.04107142857144,949.75,91.98459821428573C952.1666666666666,91.92812500000001,954.5833333333334,91.87165178571429,957,91.81517857142858C959.4166666666666,91.75870535714286,961.8333333333334,91.70223214285714,964.25,91.64575892857142C966.6666666666667,91.58928571428571,969.0833333333334,91.5328125,971.5000000000001,91.47633928571429C973.9166666666667,91.41986607142857,976.3333333333335,91.36339285714287,978.7500000000001,91.30691964285715C981.1666666666667,91.25044642857144,983.5833333333335,91.19397321428572,986.0000000000001,91.1375C988.4166666666667,91.08102678571429,990.8333333333335,91.02455357142857,993.2500000000001,90.96808035714285C995.6666666666667,90.91160714285714,998.0833333333333,90.85513392857143,1000.4999999999999,90.79866071428572C1002.9166666666665,90.7421875,1005.3333333333333,90.6857142857143,1007.7499999999999,90.62924107142858C1010.1666666666665,90.57276785714286,1012.5833333333333,90.51629464285715,1014.9999999999999,90.45982142857143C1017.4166666666665,90.40334821428571,1019.8333333333333,90.34687500000001,1022.2499999999999,90.2904017857143C1024.6666666666665,90.23392857142858,1027.0833333333333,90.17745535714286,1029.5,90.12098214285714C1031.9166666666667,90.06450892857143,1034.3333333333333,90.00803571428573,1036.75,89.95156250000001C1039.1666666666667,89.89508928571429,1041.5833333333333,89.83861607142858,1044,89.78214285714286C1046.4166666666667,89.72566964285714,1048.8333333333333,89.66919642857144,1051.25,89.61272321428572C1053.6666666666667,89.55625,1056.0833333333333,89.49977678571429,1058.5,89.44330357142857C1060.9166666666667,89.38683035714286,1063.3333333333333,89.33035714285715,1065.75,89.27388392857144C1068.1666666666667,89.21741071428572,1070.5833333333333,89.1609375,1073,89.10446428571429C1075.4166666666667,89.04799107142857,1077.8333333333333,88.99151785714287,1080.25,88.93504464285715C1082.6666666666667,88.87857142857143,1085.0833333333333,88.82209821428572,1087.5,88.765625C1089.9166666666667,88.70915178571428,1092.3333333333333,88.65267857142858,1094.75,88.59620535714286C1097.1666666666667,88.53973214285715,1099.5833333333333,88.48325892857143,1102,88.42678571428571C1104.4166666666667,88.3703125,1106.8333333333333,88.3138392857143,1109.25,88.25736607142858C1111.6666666666667,88.20089285714286,1114.0833333333333,88.14441964285714,1116.5,88.08794642857143C1118.9166666666667,88.03147321428571,1121.3333333333333,87.97500000000001,1123.75,87.91852678571429C1126.1666666666667,87.86205357142858,1128.5833333333333,87.80558035714286,1131,87.74910714285714C1133.4166666666667,87.69263392857142,1135.8333333333333,87.63616071428572,1138.25,87.5796875C1140.6666666666667,87.52321428571429,1143.0833333333333,87.46674107142857,1145.5,87.41026785714286C1147.9166666666667,87.35379464285714,1150.3333333333333,87.29732142857144,1152.75,87.24084821428572C1155.1666666666667,87.184375,1157.5833333333333,87.184375,1160,87.07142857142857C1162.4166666666667,86.95848214285714,1164.8333333333333,85.97619047619048,1167.25,85.42857142857143C1169.6666666666667,84.88095238095238,1172.0833333333333,84.33333333333334,1174.5,83.78571428571429C1176.9166666666667,83.23809523809524,1179.3333333333333,82.69047619047619,1181.75,82.14285714285714C1184.1666666666667,81.59523809523809,1186.5833333333333,81.04761904761905,1189,80.5C1191.4166666666667,79.95238095238095,1193.8333333333333,79.40476190476191,1196.25,78.85714285714286C1198.6666666666667,78.30952380952381,1201.0833333333333,77.76190476190477,1203.5,77.21428571428572C1205.9166666666667,76.66666666666667,1208.3333333333333,76.11904761904762,1210.75,75.57142857142857C1213.1666666666667,75.02380952380952,1215.5833333333333,74.47619047619047,1218,73.92857142857142C1220.4166666666667,73.38095238095237,1222.8333333333333,72.83333333333331,1225.25,72.28571428571428C1227.6666666666667,71.73809523809524,1230.0833333333333,71.1904761904762,1232.5,70.64285714285715C1234.9166666666667,70.0952380952381,1237.3333333333333,69.54761904761904,1239.75,68.99999999999999C1242.1666666666667,68.45238095238093,1244.5833333333333,67.90476190476191,1247,67.35714285714286C1249.4166666666667,66.80952380952381,1251.8333333333333,66.26190476190476,1254.25,65.71428571428571C1256.6666666666667,65.16666666666666,1259.0833333333333,64.61904761904762,1261.5,64.07142857142857C1263.9166666666667,63.523809523809526,1266.3333333333333,62.97619047619048,1268.75,62.42857142857144C1271.1666666666667,61.880952380952394,1273.5833333333333,61.333333333333336,1276,60.785714285714285C1278.4166666666667,60.238095238095234,1280.8333333333333,59.69047619047618,1283.25,59.14285714285714C1285.6666666666667,58.595238095238095,1288.0833333333333,58.047619047619044,1290.5,57.5C1292.9166666666667,56.952380952380956,1295.3333333333333,56.404761904761905,1297.75,55.85714285714286C1300.1666666666667,55.30952380952382,1302.5833333333333,54.76190476190476,1305,54.214285714285715C1307.4166666666667,53.66666666666667,1309.8333333333333,53.11904761904763,1312.25,52.57142857142858C1314.6666666666667,52.023809523809526,1317.0833333333333,51.47619047619047,1319.5,50.92857142857142C1321.9166666666667,50.38095238095238,1324.3333333333333,49.833333333333336,1326.75,49.28571428571429C1329.1666666666667,48.73809523809525,1331.5833333333333,48.19047619047619,1334,47.64285714285714C1336.4166666666667,47.09523809523809,1338.8333333333333,46.547619047619044,1341.25,46C1343.6666666666667,45.452380952380956,1346.0833333333333,44.9047619047619,1348.5,44.357142857142854C1350.9166666666667,43.80952380952381,1353.3333333333333,43.26190476190476,1355.75,42.714285714285715C1358.1666666666667,42.16666666666667,1360.5833333333333,41.61904761904761,1363,41.07142857142857C1365.4166666666667,40.523809523809526,1367.8333333333333,39.976190476190474,1370.25,39.42857142857143C1372.6666666666667,38.88095238095239,1375.0833333333333,38.33333333333334,1377.5,37.78571428571429C1379.9166666666667,37.23809523809524,1382.3333333333333,36.69047619047618,1384.75,36.14285714285714C1387.1666666666667,35.595238095238095,1389.5833333333333,35.04761904761905,1392,34.50000000000001C1394.4166666666667,33.95238095238096,1396.8333333333333,33.404761904761905,1399.25,32.857142857142854C1401.6666666666667,32.3095238095238,1404.0833333333333,31.761904761904766,1406.5,31.21428571428572C1408.9166666666667,30.66666666666667,1411.3333333333333,30.119047619047617,1413.75,29.57142857142857C1416.1666666666667,29.023809523809522,1418.5833333333333,28.476190476190478,1421,27.92857142857143C1423.4166666666667,27.380952380952383,1425.8333333333333,26.833333333333332,1428.25,26.28571428571428C1430.6666666666667,25.73809523809523,1433.0833333333333,25.190476190476183,1435.5,24.64285714285713C1437.9166666666667,24.09523809523808,1440.3333333333333,23.547619047619026,1442.75,22.999999999999982C1445.1666666666667,22.45238095238094,1447.5833333333333,21.904761904761905,1450,21.357142857142872" fill="transparent" stroke-linecap="round" stroke="#B6509E" stroke-width="2"></path><path class="visx-linepath" d="M0,85.42857142853241C2.4166666666666665,85.42206845235819,4.833333333333334,85.41556547618396,7.25,85.40906249999999C9.666666666666666,85.40255952381602,12.083333333333334,85.39605654761905,14.5,85.38955357142858C16.916666666666668,85.3830505952381,19.333333333333332,85.37654761904761,21.75,85.37004464285714C24.166666666666668,85.36354166666666,26.583333333333332,85.35703869047619,29,85.35053571428571C31.416666666666668,85.34403273809524,33.833333333333336,85.33752976190478,36.25,85.3310267857143C38.666666666666664,85.32452380952382,41.083333333333336,85.31802083333334,43.5,85.31151785714286C45.91666666666667,85.30501488095238,48.333333333333336,85.29851190476191,50.75000000000001,85.29200892857143C53.16666666666667,85.28550595238096,55.583333333333336,85.27900297619048,58,85.27250000000001C60.416666666666664,85.26599702380953,62.833333333333336,85.25949404761904,65.25,85.25299107142857C67.66666666666667,85.24648809523809,70.08333333333333,85.23998511904762,72.5,85.23348214285714C74.91666666666667,85.22697916666667,77.33333333333333,85.22047619047619,79.75,85.21397321428572C82.16666666666667,85.20747023809524,84.58333333333333,85.20096726190475,87,85.19446428571428C89.41666666666667,85.1879613095238,91.83333333333333,85.18145833333332,94.25,85.17495535714285C96.66666666666667,85.16845238095237,99.08333333333334,85.1619494047619,101.50000000000001,85.15544642857142C103.91666666666667,85.14894345238095,106.33333333333334,85.14244047619047,108.75,85.1359375C111.16666666666667,85.12943452380952,113.58333333333333,85.12293154761905,116,85.11642857142857C118.41666666666667,85.1099255952381,120.83333333333334,85.10342261904762,123.25000000000001,85.09691964285715C125.66666666666667,85.09041666666667,128.08333333333334,85.08391369047618,130.5,85.0774107142857C132.91666666666666,85.07090773809523,135.33333333333334,85.06440476190477,137.75,85.0579017857143C140.16666666666666,85.05139880952382,142.58333333333334,85.04489583333333,145,85.03839285714285C147.41666666666666,85.03188988095238,149.83333333333334,85.0253869047619,152.25,85.01888392857143C154.66666666666666,85.01238095238095,157.08333333333334,85.00587797619048,159.5,84.999375C161.91666666666666,84.99287202380953,164.33333333333334,84.98636904761904,166.75,84.97986607142856C169.16666666666666,84.97336309523808,171.58333333333334,84.96686011904761,174,84.96035714285713C176.41666666666666,84.95385416666666,178.83333333333334,84.9473511904762,181.25,84.94084821428572C183.66666666666666,84.93434523809525,186.08333333333334,84.92784226190476,188.5,84.92133928571428C190.91666666666666,84.9148363095238,193.33333333333334,84.90833333333335,195.75,84.90183035714287C198.16666666666669,84.8953273809524,200.58333333333334,84.8888244047619,203.00000000000003,84.88232142857143C205.41666666666669,84.87581845238095,207.83333333333331,84.86931547619048,210.24999999999997,84.8628125C212.66666666666666,84.85630952380953,215.08333333333331,84.84980654761905,217.5,84.84330357142858C219.91666666666666,84.8368005952381,222.33333333333334,84.83029761904761,224.75,84.82379464285714C227.16666666666666,84.81729166666666,229.58333333333334,84.81078869047619,232,84.80428571428571C234.41666666666666,84.79778273809524,236.83333333333334,84.79127976190476,239.25,84.78477678571429C241.66666666666669,84.77827380952381,244.08333333333334,84.77177083333332,246.50000000000003,84.76526785714285C248.91666666666669,84.75876488095237,251.33333333333331,84.75226190476191,253.74999999999997,84.74575892857143C256.16666666666663,84.73925595238096,258.5833333333333,84.73275297619048,261,84.72625000000001C263.4166666666667,84.71974702380953,265.8333333333333,84.71324404761906,268.25,84.70674107142858C270.6666666666667,84.7002380952381,273.0833333333333,84.69373511904763,275.5,84.68723214285716C277.9166666666667,84.68072916666668,280.3333333333333,84.67422619047619,282.75,84.66772321428572C285.1666666666667,84.66122023809524,287.5833333333333,84.65471726190475,290,84.64821428571427C292.4166666666667,84.6417113095238,294.8333333333333,84.63520833333334,297.25,84.62870535714286C299.6666666666667,84.62220238095239,302.0833333333333,84.6156994047619,304.5,84.60919642857142C306.9166666666667,84.60269345238095,309.3333333333333,84.59619047619047,311.75,84.5896875C314.1666666666667,84.58318452380952,316.5833333333333,84.57668154761905,319,84.57017857142857C321.4166666666667,84.5636755952381,323.8333333333333,84.55717261904762,326.25,84.55066964285714C328.6666666666667,84.54416666666667,331.0833333333333,84.5376636904762,333.5,84.53116071428572C335.9166666666667,84.52465773809524,338.3333333333333,84.51815476190477,340.75,84.51165178571429C343.1666666666667,84.50514880952382,345.5833333333333,84.49864583333333,348,84.49214285714285C350.4166666666667,84.48563988095238,352.8333333333333,84.47913690476192,355.25,84.47263392857144C357.6666666666667,84.46613095238096,360.0833333333333,84.45962797619048,362.5,84.453125C364.9166666666667,84.44662202380952,367.3333333333333,84.44011904761904,369.75,84.43361607142856C372.1666666666667,84.42711309523808,374.5833333333333,84.42061011904762,377,84.41410714285715C379.4166666666667,84.40760416666667,381.8333333333333,84.40110119047618,384.25,84.39459821428571C386.6666666666667,84.38809523809523,389.0833333333333,84.38159226190476,391.5,84.37508928571428C393.9166666666667,84.3685863095238,396.33333333333337,84.36208333333333,398.75000000000006,84.35558035714286C401.16666666666674,84.34907738095238,403.58333333333337,84.3425744047619,406.00000000000006,84.33607142857143C408.4166666666667,84.32956845238095,410.8333333333333,84.32306547619046,413.24999999999994,84.31656249999999C415.66666666666663,84.31005952380951,418.08333333333326,84.30355654761905,420.49999999999994,84.29705357142858C422.91666666666663,84.2905505952381,425.3333333333333,84.28404761904761,427.75,84.27754464285714C430.1666666666667,84.27104166666666,432.5833333333333,84.26453869047619,435,84.25803571428571C437.4166666666667,84.25153273809524,439.8333333333333,84.24502976190476,442.25,84.23852678571428C444.6666666666667,84.23202380952381,447.0833333333333,84.22552083333333,449.5,84.21901785714286C451.9166666666667,84.21251488095238,454.3333333333333,84.20601190476191,456.75,84.19950892857143C459.1666666666667,84.19300595238096,461.5833333333333,84.18650297619047,464,84.17999999999999C466.4166666666667,84.17349702380952,468.8333333333333,84.16699404761904,471.25,84.16049107142857C473.6666666666667,84.15398809523809,476.0833333333333,84.14748511904763,478.5,84.14098214285715C480.9166666666667,84.13447916666668,483.33333333333337,84.12797619047619,485.75000000000006,84.12147321428571C488.16666666666674,84.11497023809524,490.58333333333337,84.10846726190478,493.00000000000006,84.1019642857143C495.4166666666667,84.09546130952383,497.8333333333333,84.08895833333334,500.24999999999994,84.08245535714286C502.66666666666663,84.07595238095239,505.08333333333326,84.0694494047619,507.49999999999994,84.06294642857142C509.91666666666663,84.05644345238095,512.3333333333333,84.04994047619047,514.75,84.0434375C517.1666666666666,84.03693452380952,519.5833333333334,84.03043154761905,522,84.02392857142857C524.4166666666666,84.0174255952381,526.8333333333334,84.0109226190476,529.25,84.00441964285713C531.6666666666666,83.99791666666665,534.0833333333334,83.9914136904762,536.5,83.98491071428572C538.9166666666666,83.97840773809524,541.3333333333334,83.97190476190475,543.75,83.96540178571428C546.1666666666666,83.9588988095238,548.5833333333334,83.95239583333334,551,83.94589285714287C553.4166666666666,83.93938988095239,555.8333333333334,83.93288690476192,558.25,83.92638392857144C560.6666666666666,83.91988095238096,563.0833333333334,83.91337797619047,565.5,83.906875C567.9166666666666,83.90037202380952,570.3333333333334,83.89386904761905,572.75,83.88736607142857C575.1666666666666,83.8808630952381,577.5833333333334,83.87436011904762,580,83.86785714285715C582.4166666666666,83.86135416666667,584.8333333333334,83.85485119047618,587.25,83.8483482142857C589.6666666666666,83.84184523809523,592.0833333333334,83.83534226190477,594.5,83.8288392857143C596.9166666666666,83.82233630952382,599.3333333333334,83.81583333333333,601.75,83.80933035714285C604.1666666666666,83.80282738095238,606.5833333333334,83.79632440476189,609,83.78982142857141C611.4166666666666,83.78331845238094,613.8333333333334,83.77681547619046,616.25,83.77031249999999C618.6666666666666,83.76380952380951,621.0833333333334,83.75730654761905,623.5,83.75080357142858C625.9166666666666,83.7443005952381,628.3333333333334,83.73779761904761,630.75,83.73129464285714C633.1666666666666,83.72479166666666,635.5833333333334,83.7182886904762,638,83.71178571428572C640.4166666666666,83.70528273809525,642.8333333333334,83.69877976190476,645.25,83.69227678571428C647.6666666666666,83.68577380952381,650.0833333333334,83.67927083333333,652.5,83.67276785714286C654.9166666666666,83.66626488095238,657.3333333333334,83.65976190476191,659.75,83.65325892857143C662.1666666666666,83.64675595238096,664.5833333333334,83.64025297619047,667,83.63374999999999C669.4166666666666,83.62724702380952,671.8333333333334,83.62074404761904,674.25,83.61424107142857C676.6666666666666,83.60773809523809,679.0833333333334,83.60123511904762,681.5,83.59473214285714C683.9166666666666,83.58822916666666,686.3333333333334,83.58172619047618,688.75,83.5752232142857C691.1666666666666,83.56872023809522,693.5833333333334,83.56221726190476,696,83.55571428571429C698.4166666666666,83.54921130952381,700.8333333333334,83.54270833333334,703.25,83.53620535714286C705.6666666666666,83.52970238095239,708.0833333333334,83.5231994047619,710.5,83.51669642857142C712.9166666666666,83.51019345238095,715.3333333333334,83.50369047619049,717.75,83.49718750000001C720.1666666666666,83.49068452380953,722.5833333333334,83.48418154761904,725,83.47767857142857C727.4166666666666,83.4711755952381,729.8333333333334,83.46467261904762,732.25,83.45816964285714C734.6666666666666,83.45166666666667,737.0833333333334,83.44516369047619,739.5,83.43866071428572C741.9166666666666,83.43215773809524,744.3333333333334,83.42565476190475,746.75,83.41915178571428C749.1666666666666,83.4126488095238,751.5833333333334,83.40614583333333,754,83.39964285714285C756.4166666666666,83.39313988095238,758.8333333333334,83.3866369047619,761.25,83.38013392857142C763.6666666666666,83.37363095238095,766.0833333333334,83.36712797619047,768.5,83.360625C770.9166666666666,83.35412202380952,773.3333333333334,83.34761904761906,775.75,83.34111607142859C778.1666666666666,83.33461309523811,780.5833333333334,83.32811011904762,783,83.32160714285715C785.4166666666667,83.31510416666667,787.8333333333334,83.3086011904762,790.2500000000001,83.30209821428572C792.6666666666667,83.29559523809525,795.0833333333335,83.28909226190477,797.5000000000001,83.2825892857143C799.9166666666667,83.27608630952382,802.3333333333335,83.26958333333333,804.7500000000001,83.26308035714285C807.1666666666667,83.25657738095238,809.5833333333335,83.2500744047619,812.0000000000001,83.24357142857143C814.4166666666667,83.23706845238095,816.8333333333333,83.23056547619048,819.2499999999999,83.2240625C821.6666666666665,83.21755952380953,824.0833333333333,83.21105654761904,826.4999999999999,83.20455357142856C828.9166666666665,83.19805059523809,831.3333333333333,83.19154761904761,833.7499999999999,83.18504464285714C836.1666666666665,83.17854166666666,838.5833333333333,83.17203869047619,840.9999999999999,83.16553571428571C843.4166666666666,83.15903273809523,845.8333333333333,83.15252976190476,848.25,83.14602678571428C850.6666666666666,83.13952380952381,853.0833333333334,83.13302083333333,855.5,83.12651785714286C857.9166666666666,83.12001488095238,860.3333333333334,83.1135119047619,862.75,83.10700892857143C865.1666666666666,83.10050595238096,867.5833333333334,83.09400297619047,870,83.08749999999999C872.4166666666666,83.08099702380952,874.8333333333334,83.07449404761905,877.25,83.06799107142858C879.6666666666666,83.0614880952381,882.0833333333334,83.05498511904761,884.5,83.04848214285714C886.9166666666666,83.04197916666666,889.3333333333334,83.03547619047619,891.75,83.02897321428571C894.1666666666666,83.02247023809524,896.5833333333334,83.01596726190476,899,83.00946428571429C901.4166666666666,83.00296130952381,903.8333333333334,82.99645833333332,906.25,82.98995535714285C908.6666666666666,82.98345238095237,911.0833333333334,82.9769494047619,913.5,82.97044642857142C915.9166666666666,82.96394345238095,918.3333333333334,82.95744047619048,920.75,82.95093750000001C923.1666666666666,82.94443452380953,925.5833333333334,82.93793154761904,928,82.93142857142857C930.4166666666666,82.9249255952381,932.8333333333334,82.91842261904762,935.25,82.91191964285714C937.6666666666666,82.90541666666667,940.0833333333334,82.89891369047619,942.5,82.89241071428572C944.9166666666666,82.88590773809524,947.3333333333334,82.87940476190477,949.75,82.87290178571429C952.1666666666666,82.86639880952382,954.5833333333334,82.85989583333334,957,82.85339285714286C959.4166666666666,82.84688988095239,961.8333333333334,82.8403869047619,964.25,82.83388392857142C966.6666666666667,82.82738095238095,969.0833333333334,82.82087797619047,971.5000000000001,82.814375C973.9166666666667,82.80787202380952,976.3333333333335,82.80136904761905,978.7500000000001,82.79486607142857C981.1666666666667,82.7883630952381,983.5833333333335,82.78186011904761,986.0000000000001,82.77535714285713C988.4166666666667,82.76885416666666,990.8333333333335,82.7623511904762,993.2500000000001,82.75584821428572C995.6666666666667,82.74934523809524,998.0833333333333,82.74284226190477,1000.4999999999999,82.7363392857143C1002.9166666666665,82.72983630952382,1005.3333333333333,82.72333333333333,1007.7499999999999,82.71683035714285C1010.1666666666665,82.71032738095238,1012.5833333333333,82.70382440476192,1014.9999999999999,82.69732142857144C1017.4166666666665,82.69081845238097,1019.8333333333333,82.68431547619048,1022.2499999999999,82.6778125C1024.6666666666665,82.67130952380953,1027.0833333333333,82.66480654761904,1029.5,82.65830357142856C1031.9166666666667,82.65180059523809,1034.3333333333333,82.64529761904762,1036.75,82.63879464285715C1039.1666666666667,82.63229166666667,1041.5833333333333,82.62578869047618,1044,82.61928571428571C1046.4166666666667,82.61278273809523,1048.8333333333333,82.60627976190474,1051.25,82.59977678571427C1053.6666666666667,82.5932738095238,1056.0833333333333,82.58677083333333,1058.5,82.58026785714286C1060.9166666666667,82.57376488095238,1063.3333333333333,82.5672619047619,1065.75,82.56075892857143C1068.1666666666667,82.55425595238096,1070.5833333333333,82.54775297619048,1073,82.54125C1075.4166666666667,82.53474702380953,1077.8333333333333,82.52824404761905,1080.25,82.52174107142858C1082.6666666666667,82.5152380952381,1085.0833333333333,82.50873511904761,1087.5,82.50223214285714C1089.9166666666667,82.49572916666666,1092.3333333333333,82.48922619047619,1094.75,82.48272321428571C1097.1666666666667,82.47622023809524,1099.5833333333333,82.46971726190476,1102,82.46321428571429C1104.4166666666667,82.45671130952381,1106.8333333333333,82.45020833333332,1109.25,82.44370535714285C1111.6666666666667,82.43720238095237,1114.0833333333333,82.43069940476191,1116.5,82.42419642857143C1118.9166666666667,82.41769345238096,1121.3333333333333,82.41119047619047,1123.75,82.4046875C1126.1666666666667,82.39818452380952,1128.5833333333333,82.39168154761904,1131,82.38517857142857C1133.4166666666667,82.3786755952381,1135.8333333333333,82.37217261904762,1138.25,82.36566964285714C1140.6666666666667,82.35916666666667,1143.0833333333333,82.35266369047619,1145.5,82.34616071428572C1147.9166666666667,82.33965773809524,1150.3333333333333,82.33315476190475,1152.75,82.32665178571428C1155.1666666666667,82.3201488095238,1157.5833333333333,82.3201488095238,1160,82.30714285714286C1162.4166666666667,82.29413690476193,1164.8333333333333,81.21190476190478,1167.25,80.66428571428573C1169.6666666666667,80.11666666666667,1172.0833333333333,79.56904761904762,1174.5,79.02142857142857C1176.9166666666667,78.47380952380952,1179.3333333333333,77.92619047619047,1181.75,77.37857142857142C1184.1666666666667,76.83095238095237,1186.5833333333333,76.28333333333332,1189,75.73571428571428C1191.4166666666667,75.18809523809524,1193.8333333333333,74.6404761904762,1196.25,74.09285714285716C1198.6666666666667,73.5452380952381,1201.0833333333333,72.99761904761904,1203.5,72.44999999999999C1205.9166666666667,71.90238095238094,1208.3333333333333,71.3547619047619,1210.75,70.80714285714285C1213.1666666666667,70.2595238095238,1215.5833333333333,69.71190476190476,1218,69.16428571428571C1220.4166666666667,68.61666666666666,1222.8333333333333,68.06904761904762,1225.25,67.52142857142857C1227.6666666666667,66.97380952380952,1230.0833333333333,66.42619047619048,1232.5,65.87857142857143C1234.9166666666667,65.33095238095238,1237.3333333333333,64.78333333333335,1239.75,64.2357142857143C1242.1666666666667,63.688095238095244,1244.5833333333333,63.14047619047619,1247,62.59285714285714C1249.4166666666667,62.04523809523809,1251.8333333333333,61.497619047619054,1254.25,60.95C1256.6666666666667,60.40238095238095,1259.0833333333333,59.85476190476189,1261.5,59.30714285714284C1263.9166666666667,58.7595238095238,1266.3333333333333,58.21190476190476,1268.75,57.66428571428572C1271.1666666666667,57.116666666666674,1273.5833333333333,56.56904761904763,1276,56.02142857142858C1278.4166666666667,55.47380952380953,1280.8333333333333,54.92619047619047,1283.25,54.378571428571426C1285.6666666666667,53.83095238095238,1288.0833333333333,53.28333333333334,1290.5,52.735714285714295C1292.9166666666667,52.18809523809525,1295.3333333333333,51.64047619047619,1297.75,51.09285714285714C1300.1666666666667,50.54523809523809,1302.5833333333333,49.99761904761904,1305,49.449999999999996C1307.4166666666667,48.90238095238095,1309.8333333333333,48.3547619047619,1312.25,47.80714285714286C1314.6666666666667,47.25952380952381,1317.0833333333333,46.71190476190476,1319.5,46.16428571428572C1321.9166666666667,45.616666666666674,1324.3333333333333,45.069047619047616,1326.75,44.52142857142857C1329.1666666666667,43.97380952380953,1331.5833333333333,43.426190476190484,1334,42.87857142857143C1336.4166666666667,42.33095238095238,1338.8333333333333,41.78333333333333,1341.25,41.23571428571428C1343.6666666666667,40.68809523809523,1346.0833333333333,40.140476190476186,1348.5,39.59285714285714C1350.9166666666667,39.0452380952381,1353.3333333333333,38.497619047619054,1355.75,37.95000000000001C1358.1666666666667,37.402380952380966,1360.5833333333333,36.85476190476191,1363,36.30714285714286C1365.4166666666667,35.759523809523806,1367.8333333333333,35.21190476190476,1370.25,34.66428571428572C1372.6666666666667,34.116666666666674,1375.0833333333333,33.569047619047616,1377.5,33.02142857142857C1379.9166666666667,32.47380952380953,1382.3333333333333,31.92619047619048,1384.75,31.378571428571433C1387.1666666666667,30.830952380952386,1389.5833333333333,30.283333333333335,1392,29.735714285714284C1394.4166666666667,29.188095238095233,1396.8333333333333,28.640476190476186,1399.25,28.092857142857135C1401.6666666666667,27.545238095238084,1404.0833333333333,26.997619047619033,1406.5,26.449999999999985C1408.9166666666667,25.902380952380938,1411.3333333333333,25.354761904761894,1413.75,24.80714285714285C1416.1666666666667,24.259523809523806,1418.5833333333333,23.711904761904755,1421,23.16428571428571C1423.4166666666667,22.616666666666667,1425.8333333333333,22.06904761904763,1428.25,21.521428571428586C1430.6666666666667,20.973809523809543,1433.0833333333333,20.426190476190488,1435.5,19.878571428571437C1437.9166666666667,19.330952380952386,1440.3333333333333,18.783333333333335,1442.75,18.235714285714288C1445.1666666666667,17.68809523809524,1447.5833333333333,17.140476190476193,1450,16.59285714285715" fill="transparent" stroke-linecap="round" stroke="#E7C6DF" stroke-width="2"></path><g class="visx-group visx-axis visx-axis-bottom" transform="translate(0, 115)"><g class="visx-group visx-axis-tick" transform="translate(0, 0)"><line class="visx-line" x1="0" y1="0" x2="0" y2="8" fill="transparent" shape-rendering="crispEdges" stroke="#000" stroke-width="0" stroke-linecap="square"></line><svg x="0" y="0" font-size="10" style="overflow:visible"><text transform="" x="0" y="18" fill="#000" font-size="10" text-anchor="middle"><tspan x="0" dy="0em">0%</tspan></text></svg></g><g class="visx-group visx-axis-tick" transform="translate(0, 0)"><line class="visx-line" x1="362.5" y1="0" x2="362.5" y2="8" fill="transparent" shape-rendering="crispEdges" stroke="#000" stroke-width="0" stroke-linecap="square"></line><svg x="0" y="0" font-size="10" style="overflow:visible"><text transform="" x="362.5" y="18" fill="#000" font-size="10" text-anchor="middle"><tspan x="362.5" dy="0em">25%</tspan></text></svg></g><g class="visx-group visx-axis-tick" transform="translate(0, 0)"><line class="visx-line" x1="725" y1="0" x2="725" y2="8" fill="transparent" shape-rendering="crispEdges" stroke="#000" stroke-width="0" stroke-linecap="square"></line><svg x="0" y="0" font-size="10" style="overflow:visible"><text transform="" x="725" y="18" fill="#000" font-size="10" text-anchor="middle"><tspan x="725" dy="0em">50%</tspan></text></svg></g><g class="visx-group visx-axis-tick" transform="translate(0, 0)"><line class="visx-line" x1="1087.5" y1="0" x2="1087.5" y2="8" fill="transparent" shape-rendering="crispEdges" stroke="#000" stroke-width="0" stroke-linecap="square"></line><svg x="0" y="0" font-size="10" style="overflow:visible"><text transform="" x="1087.5" y="18" fill="#000" font-size="10" text-anchor="middle"><tspan x="1087.5" dy="0em">75%</tspan></text></svg></g><g class="visx-group visx-axis-tick" transform="translate(0, 0)"><line class="visx-line" x1="1450" y1="0" x2="1450" y2="8" fill="transparent" shape-rendering="crispEdges" stroke="#000" stroke-width="0" stroke-linecap="square"></line><svg x="0" y="0" font-size="10" style="overflow:visible"><text transform="" x="1450" y="18" fill="#000" font-size="10" text-anchor="middle"><tspan x="1450" dy="0em">100%</tspan></text></svg></g><line class="visx-line visx-axis-line" x1="0.5" y1="0" x2="1450.5" y2="0" fill="transparent" shape-rendering="crispEdges" stroke="#222" stroke-width="0"></line></g><g class="visx-group visx-axis visx-axis-left" transform="translate(0, 0)"><g class="visx-group visx-axis-tick" transform="translate(0, 0)"><line class="visx-line" x1="0" y1="115" x2="-8" y2="115" fill="transparent" shape-rendering="crispEdges" stroke="#222" stroke-width="0" stroke-linecap="square"></line><svg x="-30" y="0" font-size="8" style="overflow:visible"><text transform="" x="-8" y="115" fill="#000" font-size="8" text-anchor="start"><tspan x="-8" dy="0em">0%</tspan></text></svg></g><g class="visx-group visx-axis-tick" transform="translate(0, 0)"><line class="visx-line" x1="0" y1="73.92857142857142" x2="-8" y2="73.92857142857142" fill="transparent" shape-rendering="crispEdges" stroke="#222" stroke-width="0" stroke-linecap="square"></line><svg x="-30" y="0" font-size="8" style="overflow:visible"><text transform="" x="-8" y="73.92857142857142" fill="#000" font-size="8" text-anchor="start"><tspan x="-8" dy="0em">50%</tspan></text></svg></g><g class="visx-group visx-axis-tick" transform="translate(0, 0)"><line class="visx-line" x1="0" y1="32.857142857142854" x2="-8" y2="32.857142857142854" fill="transparent" shape-rendering="crispEdges" stroke="#222" stroke-width="0" stroke-linecap="square"></line><svg x="-30" y="0" font-size="8" style="overflow:visible"><text transform="" x="-8" y="32.857142857142854" fill="#000" font-size="8" text-anchor="start"><tspan x="-8" dy="0em">100%</tspan></text></svg></g><line class="visx-line visx-axis-line" x1="0" y1="115.5" x2="0" y2="0.5" fill="transparent" shape-rendering="crispEdges" stroke="#222" stroke-width="0"></line></g><rect class="visx-bar" width="1450" height="115" fill="transparent"></rect><line class="visx-line" x1="1160" y1="28" x2="1160" y2="115" fill="transparent" shape-rendering="crispEdges" stroke="#0062D2" stroke-width="1" pointer-events="none" stroke-dasharray="5,2"></line><svg x="0" y="0" font-size="10px" style="overflow:visible"><text transform="" x="1160" y="20" font-size="10px" fill="#fff" stroke="#fff" stroke-width="0.8em" text-anchor="middle"><tspan x="1160" dy="0.355em">Optimal 80%</tspan></text></svg><svg x="0" y="0" font-size="10px" style="overflow:visible"><text transform="" x="1160" y="20" font-size="10px" fill="#62677B" text-anchor="middle"><tspan x="1160" dy="0.355em">Optimal 80%</tspan></text></svg></g></svg>