<?xml version="1.0"?><svg xmlns="http://www.w3.org/2000/svg" xmlns:xlink= "http://www.w3.org/1999/xlink" style="background: white;" width="1500" height="185"> <g style="color: black; font-size: 13px; font-family: sans-serif; transform: translate(18px, 25px);"><g><circle r="3" cx="-6" cy="-5" style="fill: #B6509E" /><text>Borrow APR, variable</text></g><g style="transform: translateX(150px);"><circle r="3" cx="-6" cy="-5" style="fill: rgb(231, 198, 223)" /><text>Borrow APR, stable</text></g><g style="transform: translateX(290px);"><circle r="3" cx="-6" cy="-5" style="fill: rgb(0, 98, 210)" /><text>Utilization Rate</text></g></g><g class="visx-group" transform="translate(40, 50)"><g class="visx-group visx-rows" transform="translate(0, 0)"><line class="visx-line" x1="0" y1="115" x2="1450" y2="115" fill="transparent" shape-rendering="crispEdges" stroke="#000" stroke-width="1" stroke-dasharray="3,3" pointer-events="none"></line><line class="visx-line" x1="0" y1="57.5" x2="1450" y2="57.5" fill="transparent" shape-rendering="crispEdges" stroke="#000" stroke-width="1" stroke-dasharray="3,3" pointer-events="none"></line><line class="visx-line" x1="0" y1="0" x2="1450" y2="0" fill="transparent" shape-rendering="crispEdges" stroke="#000" stroke-width="1" stroke-dasharray="3,3" pointer-events="none"></line></g><path class="visx-linepath" d="M0,113.84999999995257C2.4166666666666665,113.84209374997234,4.833333333333334,113.83418749999211,7.25,113.82628125000001C9.666666666666666,113.8183750000079,12.083333333333334,113.81046875,14.5,113.8025625C16.916666666666668,113.79465624999999,19.333333333333332,113.78674999999998,21.75,113.77884375C24.166666666666668,113.7709375,26.583333333333332,113.76303125000001,29,113.755125C31.416666666666668,113.74721875,33.833333333333336,113.7393125,36.25,113.73140624999999C38.666666666666664,113.72349999999999,41.083333333333336,113.71559374999998,43.5,113.70768749999999C45.91666666666667,113.69978124999999,48.333333333333336,113.69187500000001,50.75000000000001,113.68396875C53.16666666666667,113.6760625,55.583333333333336,113.66815625,58,113.66024999999999C60.416666666666664,113.65234374999999,62.833333333333336,113.6444375,65.25,113.63653125C67.66666666666667,113.62862500000001,70.08333333333333,113.62071875000001,72.5,113.6128125C74.91666666666667,113.60490625,77.33333333333333,113.597,79.75,113.58909374999999C82.16666666666667,113.58118749999998,84.58333333333333,113.57328125,87,113.565375C89.41666666666667,113.55746875000001,91.83333333333333,113.54956250000001,94.25,113.54165625C96.66666666666667,113.53375,99.08333333333334,113.52584374999999,101.50000000000001,113.51793749999999C103.91666666666667,113.51003124999998,106.33333333333334,113.50212499999999,108.75,113.49421875C111.16666666666667,113.4863125,113.58333333333333,113.47840625,116,113.4705C118.41666666666667,113.46259375,120.83333333333334,113.4546875,123.25000000000001,113.44678125C125.66666666666667,113.438875,128.08333333333334,113.43096875,130.5,113.4230625C132.91666666666666,113.41515625,135.33333333333334,113.40725,137.75,113.39934375C140.16666666666666,113.3914375,142.58333333333334,113.38353125,145,113.375625C147.41666666666666,113.36771875,149.83333333333334,113.3598125,152.25,113.35190625C154.66666666666666,113.344,157.08333333333334,113.33609375,159.5,113.3281875C161.91666666666666,113.32028125,164.33333333333334,113.312375,166.75,113.30446875C169.16666666666666,113.2965625,171.58333333333334,113.28865625,174,113.28075C176.41666666666666,113.27284374999999,178.83333333333334,113.26493749999999,181.25,113.25703125C183.66666666666666,113.249125,186.08333333333334,113.24121875000002,188.5,113.23331250000001C190.91666666666666,113.22540625,193.33333333333334,113.2175,195.75,113.20959375C198.16666666666669,113.20168749999999,200.58333333333334,113.19378125,203.00000000000003,113.185875C205.41666666666669,113.17796875,207.83333333333331,113.17006250000001,210.24999999999997,113.16215625000001C212.66666666666666,113.15425,215.08333333333331,113.14634375,217.5,113.1384375C219.91666666666666,113.13053124999999,222.33333333333334,113.122625,224.75,113.11471875000001C227.16666666666666,113.10681250000002,229.58333333333334,113.09890625000001,232,113.09100000000001C234.41666666666666,113.08309375,236.83333333333334,113.0751875,239.25,113.06728125C241.66666666666669,113.05937499999999,244.08333333333334,113.05146875000001,246.50000000000003,113.04356250000001C248.91666666666669,113.03565625000002,251.33333333333331,113.02775000000001,253.74999999999997,113.01984375C256.16666666666663,113.0119375,258.5833333333333,113.00403125,261,112.99612499999999C263.4166666666667,112.98821874999999,265.8333333333333,112.9803125,268.25,112.97240625C270.6666666666667,112.96450000000002,273.0833333333333,112.95659375000001,275.5,112.9486875C277.9166666666667,112.94078125,280.3333333333333,112.932875,282.75,112.92496874999999C285.1666666666667,112.91706249999999,287.5833333333333,112.90915625,290,112.90125C292.4166666666667,112.89334375000001,294.8333333333333,112.88543750000001,297.25,112.87753125C299.6666666666667,112.869625,302.0833333333333,112.86171875000001,304.5,112.8538125C306.9166666666667,112.84590625,309.3333333333333,112.83800000000001,311.75,112.83009375C314.1666666666667,112.8221875,316.5833333333333,112.81428125000001,319,112.806375C321.4166666666667,112.79846875,323.8333333333333,112.79056250000001,326.25,112.78265625C328.6666666666667,112.77475,331.0833333333333,112.76684375,333.5,112.7589375C335.9166666666667,112.75103125,338.3333333333333,112.743125,340.75,112.73521875C343.1666666666667,112.7273125,345.5833333333333,112.71940625,348,112.7115C350.4166666666667,112.70359375,352.8333333333333,112.6956875,355.25,112.68778125C357.6666666666667,112.679875,360.0833333333333,112.67196875,362.5,112.6640625C364.9166666666667,112.65615625,367.3333333333333,112.64825,369.75,112.64034375C372.1666666666667,112.6324375,374.5833333333333,112.62453125,377,112.616625C379.4166666666667,112.60871875,381.8333333333333,112.6008125,384.25,112.59290625C386.6666666666667,112.585,389.0833333333333,112.57709375,391.5,112.5691875C393.9166666666667,112.56128125,396.33333333333337,112.553375,398.75000000000006,112.54546875C401.16666666666674,112.5375625,403.58333333333337,112.52965625000002,406.00000000000006,112.52175000000001C408.4166666666667,112.51384375,410.8333333333333,112.5059375,413.24999999999994,112.49803125C415.66666666666663,112.49012499999999,418.08333333333326,112.48221874999999,420.49999999999994,112.4743125C422.91666666666663,112.46640624999999,425.3333333333333,112.45850000000002,427.75,112.45059375000001C430.1666666666667,112.4426875,432.5833333333333,112.43478125,435,112.426875C437.4166666666667,112.41896874999999,439.8333333333333,112.41106249999999,442.25,112.40315625C444.6666666666667,112.39525,447.0833333333333,112.38734375000001,449.5,112.37943750000001C451.9166666666667,112.37153125,454.3333333333333,112.363625,456.75,112.35571875C459.1666666666667,112.34781249999999,461.5833333333333,112.33990624999998,464,112.332C466.4166666666667,112.32409375,468.8333333333333,112.31618750000001,471.25,112.30828125000001C473.6666666666667,112.300375,476.0833333333333,112.29246875,478.5,112.28456249999999C480.9166666666667,112.27665624999999,483.33333333333337,112.26875000000001,485.75000000000006,112.26084375C488.16666666666674,112.25293750000002,490.58333333333337,112.24503125000001,493.00000000000006,112.237125C495.4166666666667,112.22921875,497.8333333333333,112.2213125,500.24999999999994,112.21340624999999C502.66666666666663,112.20549999999999,505.08333333333326,112.19759375,507.49999999999994,112.1896875C509.91666666666663,112.18178125,512.3333333333333,112.17387500000001,514.75,112.16596875C517.1666666666666,112.1580625,519.5833333333334,112.15015625,522,112.14224999999999C524.4166666666666,112.13434374999999,526.8333333333334,112.1264375,529.25,112.11853125C531.6666666666666,112.11062500000001,534.0833333333334,112.10271875000001,536.5,112.0948125C538.9166666666666,112.08690625,541.3333333333334,112.079,543.75,112.07109374999999C546.1666666666666,112.06318749999998,548.5833333333334,112.05528125,551,112.047375C553.4166666666666,112.03946875000001,555.8333333333334,112.0315625,558.25,112.02365625C560.6666666666666,112.01575,563.0833333333334,112.00784375,565.5,111.9999375C567.9166666666666,111.99203125,570.3333333333334,111.984125,572.75,111.97621875C575.1666666666666,111.9683125,577.5833333333334,111.96040625,580,111.9525C582.4166666666666,111.94459375,584.8333333333334,111.9366875,587.25,111.92878125C589.6666666666666,111.920875,592.0833333333334,111.91296875,594.5,111.9050625C596.9166666666666,111.89715625,599.3333333333334,111.88925,601.75,111.88134375C604.1666666666666,111.8734375,606.5833333333334,111.86553125,609,111.857625C611.4166666666666,111.84971875,613.8333333333334,111.8418125,616.25,111.83390625C618.6666666666666,111.826,621.0833333333334,111.81809375,623.5,111.8101875C625.9166666666666,111.80228125,628.3333333333334,111.794375,630.75,111.78646875C633.1666666666666,111.77856249999999,635.5833333333334,111.77065625,638,111.76275C640.4166666666666,111.75484374999999,642.8333333333334,111.7469375,645.25,111.73903125C647.6666666666666,111.73112499999999,650.0833333333334,111.72321875,652.5,111.7153125C654.9166666666666,111.70740624999999,657.3333333333334,111.69949999999999,659.75,111.69159375C662.1666666666666,111.6836875,664.5833333333334,111.67578125000001,667,111.66787500000001C669.4166666666666,111.65996875,671.8333333333334,111.6520625,674.25,111.64415625C676.6666666666666,111.63624999999999,679.0833333333334,111.62834374999998,681.5,111.6204375C683.9166666666666,111.61253125,686.3333333333334,111.60462500000001,688.75,111.59671875000001C691.1666666666666,111.5888125,693.5833333333334,111.58090625,696,111.573C698.4166666666666,111.56509374999999,700.8333333333334,111.55718749999998,703.25,111.54928124999999C705.6666666666666,111.541375,708.0833333333334,111.53346875000001,710.5,111.5255625C712.9166666666666,111.51765625,715.3333333333334,111.50975,717.75,111.50184374999999C720.1666666666666,111.49393749999999,722.5833333333334,111.48603124999998,725,111.47812499999999C727.4166666666666,111.47021875,729.8333333333334,111.46231250000001,732.25,111.45440625C734.6666666666666,111.4465,737.0833333333334,111.43859375,739.5,111.43068749999999C741.9166666666666,111.42278124999999,744.3333333333334,111.414875,746.75,111.40696875C749.1666666666666,111.39906250000001,751.5833333333334,111.39115625000001,754,111.38325C756.4166666666666,111.37534375,758.8333333333334,111.36743750000001,761.25,111.35953125C763.6666666666666,111.351625,766.0833333333334,111.34371875000001,768.5,111.3358125C770.9166666666666,111.32790625,773.3333333333334,111.32000000000001,775.75,111.31209375C778.1666666666666,111.3041875,780.5833333333334,111.29628124999999,783,111.28837499999999C785.4166666666667,111.28046874999998,787.8333333333334,111.2725625,790.2500000000001,111.26465625C792.6666666666667,111.25675000000001,795.0833333333335,111.24884375,797.5000000000001,111.2409375C799.9166666666667,111.23303125,802.3333333333335,111.225125,804.7500000000001,111.21721875C807.1666666666667,111.2093125,809.5833333333335,111.20140625,812.0000000000001,111.1935C814.4166666666667,111.18559375,816.8333333333333,111.1776875,819.2499999999999,111.16978125C821.6666666666665,111.161875,824.0833333333333,111.15396875,826.4999999999999,111.1460625C828.9166666666665,111.13815625,831.3333333333333,111.13025,833.7499999999999,111.12234375C836.1666666666665,111.1144375,838.5833333333333,111.10653124999999,840.9999999999999,111.098625C843.4166666666666,111.09071875,845.8333333333333,111.08281250000002,848.25,111.07490625000001C850.6666666666666,111.06700000000001,853.0833333333334,111.05909375,855.5,111.0511875C857.9166666666666,111.04328124999999,860.3333333333334,111.035375,862.75,111.02746875C865.1666666666666,111.01956249999999,867.5833333333334,111.01165625,870,111.00375C872.4166666666666,110.99584374999999,874.8333333333334,110.9879375,877.25,110.98003125C879.6666666666666,110.97212499999999,882.0833333333334,110.96421874999999,884.5,110.9563125C886.9166666666666,110.94840625,889.3333333333334,110.94050000000001,891.75,110.93259375000001C894.1666666666666,110.9246875,896.5833333333334,110.91678125,899,110.908875C901.4166666666666,110.90096874999999,903.8333333333334,110.8930625,906.25,110.88515625000001C908.6666666666666,110.87725000000002,911.0833333333334,110.86934375000001,913.5,110.86143750000001C915.9166666666666,110.85353125,918.3333333333334,110.845625,920.75,110.83771875C923.1666666666666,110.82981249999999,925.5833333333334,110.82190625,928,110.81400000000001C930.4166666666666,110.80609375000002,932.8333333333334,110.79818750000001,935.25,110.79028125C937.6666666666666,110.782375,940.0833333333334,110.77446875,942.5,110.76656249999999C944.9166666666666,110.75865624999999,947.3333333333334,110.75075,949.75,110.74284375C952.1666666666666,110.73493750000002,954.5833333333334,110.72703125000001,957,110.719125C959.4166666666666,110.71121875,961.8333333333334,110.7033125,964.25,110.69540624999999C966.6666666666667,110.68749999999999,969.0833333333334,110.67959375000001,971.5000000000001,110.6716875C973.9166666666667,110.66378125000001,976.3333333333335,110.65587500000001,978.7500000000001,110.64796875C981.1666666666667,110.6400625,983.5833333333335,110.63215625000001,986.0000000000001,110.62425C988.4166666666667,110.61634375,990.8333333333335,110.60843750000001,993.2500000000001,110.60053125C995.6666666666667,110.592625,998.0833333333333,110.58471875000001,1000.4999999999999,110.5768125C1002.9166666666665,110.56890625,1005.3333333333333,110.561,1007.7499999999999,110.55309375C1010.1666666666665,110.5451875,1012.5833333333333,110.53728125,1014.9999999999999,110.529375C1017.4166666666665,110.52146875,1019.8333333333333,110.5135625,1022.2499999999999,110.50565625C1024.6666666666665,110.49775,1027.0833333333333,110.48984375,1029.5,110.4819375C1031.9166666666667,110.47403125,1034.3333333333333,110.466125,1036.75,110.45821875C1039.1666666666667,110.4503125,1041.5833333333333,110.44240625,1044,110.4345C1046.4166666666667,110.42659375,1048.8333333333333,110.4186875,1051.25,110.41078125C1053.6666666666667,110.402875,1056.0833333333333,110.39496875,1058.5,110.3870625C1060.9166666666667,110.37915625,1063.3333333333333,110.37125,1065.75,110.36334375C1068.1666666666667,110.3554375,1070.5833333333333,110.34753125,1073,110.339625C1075.4166666666667,110.33171875,1077.8333333333333,110.32381249999999,1080.25,110.31590625C1082.6666666666667,110.308,1085.0833333333333,110.30009375000002,1087.5,110.29218750000001C1089.9166666666667,110.28428125,1092.3333333333333,110.276375,1094.75,110.26846875C1097.1666666666667,110.26056249999999,1099.5833333333333,110.25265624999999,1102,110.24475C1104.4166666666667,110.23684375,1106.8333333333333,110.22893750000001,1109.25,110.22103125000001C1111.6666666666667,110.213125,1114.0833333333333,110.20521875,1116.5,110.1973125C1118.9166666666667,110.18940624999999,1121.3333333333333,110.18149999999999,1123.75,110.17359375C1126.1666666666667,110.1656875,1128.5833333333333,110.15778125000001,1131,110.14987500000001C1133.4166666666667,110.14196875,1135.8333333333333,110.1340625,1138.25,110.12615625C1140.6666666666667,110.11824999999999,1143.0833333333333,110.11034374999998,1145.5,110.1024375C1147.9166666666667,110.09453125,1150.3333333333333,110.08662500000001,1152.75,110.07871875000001C1155.1666666666667,110.0708125,1157.5833333333333,110.0708125,1160,110.05499999999999C1162.4166666666667,110.03918749999998,1164.8333333333333,108.52166666666668,1167.25,107.75500000000001C1169.6666666666667,106.98833333333334,1172.0833333333333,106.22166666666666,1174.5,105.455C1176.9166666666667,104.68833333333333,1179.3333333333333,103.92166666666667,1181.75,103.155C1184.1666666666667,102.38833333333334,1186.5833333333333,101.62166666666667,1189,100.855C1191.4166666666667,100.08833333333334,1193.8333333333333,99.32166666666666,1196.25,98.55499999999999C1198.6666666666667,97.78833333333333,1201.0833333333333,97.02166666666666,1203.5,96.255C1205.9166666666667,95.48833333333333,1208.3333333333333,94.72166666666666,1210.75,93.955C1213.1666666666667,93.18833333333333,1215.5833333333333,92.42166666666665,1218,91.65499999999999C1220.4166666666667,90.88833333333332,1222.8333333333333,90.12166666666667,1225.25,89.355C1227.6666666666667,88.58833333333334,1230.0833333333333,87.82166666666667,1232.5,87.055C1234.9166666666667,86.28833333333334,1237.3333333333333,85.52166666666666,1239.75,84.755C1242.1666666666667,83.98833333333333,1244.5833333333333,83.22166666666668,1247,82.45500000000001C1249.4166666666667,81.68833333333335,1251.8333333333333,80.92166666666667,1254.25,80.155C1256.6666666666667,79.38833333333334,1259.0833333333333,78.62166666666666,1261.5,77.85499999999999C1263.9166666666667,77.08833333333332,1266.3333333333333,76.32166666666667,1268.75,75.555C1271.1666666666667,74.78833333333334,1273.5833333333333,74.02166666666666,1276,73.255C1278.4166666666667,72.48833333333333,1280.8333333333333,71.72166666666666,1283.25,70.955C1285.6666666666667,70.18833333333333,1288.0833333333333,69.42166666666667,1290.5,68.655C1292.9166666666667,67.88833333333334,1295.3333333333333,67.12166666666666,1297.75,66.35499999999999C1300.1666666666667,65.58833333333332,1302.5833333333333,64.82166666666667,1305,64.055C1307.4166666666667,63.28833333333334,1309.8333333333333,62.521666666666654,1312.25,61.75499999999999C1314.6666666666667,60.98833333333332,1317.0833333333333,60.221666666666664,1319.5,59.455C1321.9166666666667,58.68833333333333,1324.3333333333333,57.92166666666667,1326.75,57.155C1329.1666666666667,56.388333333333335,1331.5833333333333,55.62166666666666,1334,54.855C1336.4166666666667,54.08833333333333,1338.8333333333333,53.32166666666666,1341.25,52.55499999999999C1343.6666666666667,51.78833333333333,1346.0833333333333,51.021666666666675,1348.5,50.25500000000001C1350.9166666666667,49.488333333333344,1353.3333333333333,48.72166666666667,1355.75,47.955000000000005C1358.1666666666667,47.18833333333334,1360.5833333333333,46.42166666666667,1363,45.655C1365.4166666666667,44.888333333333335,1367.8333333333333,44.12166666666666,1370.25,43.355C1372.6666666666667,42.58833333333333,1375.0833333333333,41.821666666666665,1377.5,41.055C1379.9166666666667,40.288333333333334,1382.3333333333333,39.521666666666675,1384.75,38.75500000000001C1387.1666666666667,37.988333333333344,1389.5833333333333,37.22166666666665,1392,36.454999999999984C1394.4166666666667,35.68833333333332,1396.8333333333333,34.921666666666674,1399.25,34.15500000000001C1401.6666666666667,33.38833333333334,1404.0833333333333,32.62166666666667,1406.5,31.855000000000004C1408.9166666666667,31.088333333333335,1411.3333333333333,30.321666666666665,1413.75,29.555C1416.1666666666667,28.788333333333334,1418.5833333333333,28.021666666666665,1421,27.255C1423.4166666666667,26.488333333333333,1425.8333333333333,25.72166666666668,1428.25,24.95500000000001C1430.6666666666667,24.18833333333334,1433.0833333333333,23.421666666666653,1435.5,22.654999999999983C1437.9166666666667,21.888333333333314,1440.3333333333333,21.121666666666666,1442.75,20.355000000000004C1445.1666666666667,19.588333333333342,1447.5833333333333,18.821666666666673,1450,18.055000000000003" fill="transparent" stroke-linecap="round" stroke="#B6509E" stroke-width="2"></path><path class="visx-linepath" d="M0,107.75499999994537C2.4166666666666665,107.74589583330146,4.833333333333334,107.73679166665755,7.25,107.72768749999999C9.666666666666666,107.71858333334242,12.083333333333334,107.70947916666668,14.5,107.70037500000001C16.916666666666668,107.69127083333333,19.333333333333332,107.68216666666666,21.75,107.67306249999999C24.166666666666668,107.66395833333331,26.583333333333332,107.65485416666667,29,107.64575C31.416666666666668,107.63664583333335,33.833333333333336,107.62754166666667,36.25,107.6184375C38.666666666666664,107.60933333333332,41.083333333333336,107.60022916666667,43.5,107.591125C45.91666666666667,107.58202083333335,48.333333333333336,107.57291666666669,50.75000000000001,107.56381250000001C53.16666666666667,107.55470833333335,55.583333333333336,107.54560416666666,58,107.5365C60.416666666666664,107.52739583333333,62.833333333333336,107.51829166666667,65.25,107.50918750000001C67.66666666666667,107.50008333333335,70.08333333333333,107.49097916666668,72.5,107.481875C74.91666666666667,107.47277083333333,77.33333333333333,107.46366666666668,79.75,107.45456250000001C82.16666666666667,107.44545833333333,84.58333333333333,107.43635416666666,87,107.42725C89.41666666666667,107.41814583333334,91.83333333333333,107.40904166666667,94.25,107.39993750000001C96.66666666666667,107.39083333333333,99.08333333333334,107.38172916666667,101.50000000000001,107.372625C103.91666666666667,107.36352083333334,106.33333333333334,107.35441666666667,108.75,107.3453125C111.16666666666667,107.33620833333333,113.58333333333333,107.32710416666666,116,107.318C118.41666666666667,107.30889583333332,120.83333333333334,107.29979166666668,123.25000000000001,107.2906875C125.66666666666667,107.28158333333334,128.08333333333334,107.27247916666666,130.5,107.263375C132.91666666666666,107.25427083333332,135.33333333333334,107.24516666666666,137.75,107.2360625C140.16666666666666,107.22695833333334,142.58333333333334,107.21785416666668,145,107.20875000000001C147.41666666666666,107.19964583333334,149.83333333333334,107.19054166666666,152.25,107.1814375C154.66666666666666,107.17233333333334,157.08333333333334,107.16322916666667,159.5,107.15412500000001C161.91666666666666,107.14502083333335,164.33333333333334,107.13591666666667,166.75,107.1268125C169.16666666666666,107.11770833333333,171.58333333333334,107.10860416666668,174,107.0995C176.41666666666666,107.09039583333333,178.83333333333334,107.08129166666666,181.25,107.0721875C183.66666666666666,107.06308333333334,186.08333333333334,107.05397916666666,188.5,107.044875C190.91666666666666,107.03577083333334,193.33333333333334,107.02666666666666,195.75,107.0175625C198.16666666666669,107.00845833333332,200.58333333333334,106.99935416666668,203.00000000000003,106.99025C205.41666666666669,106.98114583333334,207.83333333333331,106.97204166666666,210.24999999999997,106.9629375C212.66666666666666,106.95383333333332,215.08333333333331,106.94472916666668,217.5,106.935625C219.91666666666666,106.92652083333334,222.33333333333334,106.91741666666667,224.75,106.9083125C227.16666666666666,106.89920833333332,229.58333333333334,106.89010416666666,232,106.881C234.41666666666666,106.87189583333334,236.83333333333334,106.86279166666667,239.25,106.8536875C241.66666666666669,106.84458333333333,244.08333333333334,106.83547916666667,246.50000000000003,106.826375C248.91666666666669,106.81727083333334,251.33333333333331,106.80816666666666,253.74999999999997,106.7990625C256.16666666666663,106.78995833333333,258.5833333333333,106.78085416666667,261,106.77175C263.4166666666667,106.76264583333334,265.8333333333333,106.75354166666668,268.25,106.7444375C270.6666666666667,106.73533333333333,273.0833333333333,106.72622916666666,275.5,106.717125C277.9166666666667,106.70802083333334,280.3333333333333,106.69891666666666,282.75,106.6898125C285.1666666666667,106.68070833333334,287.5833333333333,106.67160416666667,290,106.6625C292.4166666666667,106.65339583333332,294.8333333333333,106.64429166666667,297.25,106.6351875C299.6666666666667,106.62608333333333,302.0833333333333,106.61697916666665,304.5,106.60787499999999C306.9166666666667,106.59877083333333,309.3333333333333,106.58966666666666,311.75,106.5805625C314.1666666666667,106.57145833333334,316.5833333333333,106.56235416666667,319,106.55324999999999C321.4166666666667,106.54414583333332,323.8333333333333,106.53504166666666,326.25,106.5259375C328.6666666666667,106.51683333333334,331.0833333333333,106.50772916666668,333.5,106.498625C335.9166666666667,106.48952083333333,338.3333333333333,106.48041666666666,340.75,106.4713125C343.1666666666667,106.46220833333334,345.5833333333333,106.45310416666666,348,106.444C350.4166666666667,106.43489583333334,352.8333333333333,106.42579166666667,355.25,106.4166875C357.6666666666667,106.40758333333332,360.0833333333333,106.39847916666668,362.5,106.389375C364.9166666666667,106.38027083333333,367.3333333333333,106.37116666666665,369.75,106.3620625C372.1666666666667,106.35295833333333,374.5833333333333,106.34385416666666,377,106.33475C379.4166666666667,106.32564583333334,381.8333333333333,106.31654166666667,384.25,106.30743749999999C386.6666666666667,106.29833333333332,389.0833333333333,106.28922916666666,391.5,106.280125C393.9166666666667,106.27102083333332,396.33333333333337,106.26191666666666,398.75000000000006,106.25281249999999C401.16666666666674,106.24370833333333,403.58333333333337,106.23460416666667,406.00000000000006,106.2255C408.4166666666667,106.21639583333334,410.8333333333333,106.20729166666665,413.24999999999994,106.19818749999999C415.66666666666663,106.18908333333331,418.08333333333326,106.17997916666666,420.49999999999994,106.170875C422.91666666666663,106.16177083333334,425.3333333333333,106.15266666666668,427.75,106.1435625C430.1666666666667,106.13445833333334,432.5833333333333,106.12535416666665,435,106.11625C437.4166666666667,106.10714583333333,439.8333333333333,106.09804166666666,442.25,106.0889375C444.6666666666667,106.07983333333334,447.0833333333333,106.07072916666667,449.5,106.06162499999999C451.9166666666667,106.05252083333332,454.3333333333333,106.04341666666667,456.75,106.0343125C459.1666666666667,106.02520833333332,461.5833333333333,106.01610416666665,464,106.00699999999999C466.4166666666667,105.99789583333333,468.8333333333333,105.98879166666669,471.25,105.97968750000001C473.6666666666667,105.97058333333334,476.0833333333333,105.96147916666665,478.5,105.95237499999999C480.9166666666667,105.94327083333332,483.33333333333337,105.93416666666668,485.75000000000006,105.92506250000001C488.16666666666674,105.91595833333335,490.58333333333337,105.90685416666666,493.00000000000006,105.89774999999999C495.4166666666667,105.88864583333333,497.8333333333333,105.87954166666667,500.24999999999994,105.87043750000001C502.66666666666663,105.86133333333333,505.08333333333326,105.85222916666665,507.49999999999994,105.84312499999999C509.91666666666663,105.83402083333331,512.3333333333333,105.82491666666667,514.75,105.8158125C517.1666666666666,105.80670833333335,519.5833333333334,105.79760416666667,522,105.7885C524.4166666666666,105.77939583333333,526.8333333333334,105.77029166666667,529.25,105.7611875C531.6666666666666,105.75208333333335,534.0833333333334,105.74297916666669,536.5,105.73387500000001C538.9166666666666,105.72477083333334,541.3333333333334,105.71566666666668,543.75,105.7065625C546.1666666666666,105.69745833333333,548.5833333333334,105.68835416666667,551,105.67925C553.4166666666666,105.67014583333332,555.8333333333334,105.66104166666666,558.25,105.6519375C560.6666666666666,105.64283333333334,563.0833333333334,105.63372916666668,565.5,105.62462500000001C567.9166666666666,105.61552083333333,570.3333333333334,105.60641666666668,572.75,105.5973125C575.1666666666666,105.58820833333333,577.5833333333334,105.57910416666667,580,105.57C582.4166666666666,105.56089583333332,584.8333333333334,105.55179166666666,587.25,105.5426875C589.6666666666666,105.53358333333334,592.0833333333334,105.52447916666668,594.5,105.515375C596.9166666666666,105.50627083333333,599.3333333333334,105.49716666666666,601.75,105.4880625C604.1666666666666,105.47895833333334,606.5833333333334,105.46985416666666,609,105.46075C611.4166666666666,105.45164583333334,613.8333333333334,105.44254166666667,616.25,105.4334375C618.6666666666666,105.42433333333332,621.0833333333334,105.41522916666666,623.5,105.406125C625.9166666666666,105.39702083333334,628.3333333333334,105.38791666666668,630.75,105.37881250000001C633.1666666666666,105.36970833333334,635.5833333333334,105.36060416666666,638,105.3515C640.4166666666666,105.34239583333334,642.8333333333334,105.33329166666667,645.25,105.32418750000001C647.6666666666666,105.31508333333335,650.0833333333334,105.30597916666667,652.5,105.296875C654.9166666666666,105.28777083333333,657.3333333333334,105.27866666666668,659.75,105.2695625C662.1666666666666,105.26045833333333,664.5833333333334,105.25135416666666,667,105.24225C669.4166666666666,105.23314583333334,671.8333333333334,105.22404166666666,674.25,105.2149375C676.6666666666666,105.20583333333335,679.0833333333334,105.19672916666667,681.5,105.187625C683.9166666666666,105.17852083333332,686.3333333333334,105.16941666666668,688.75,105.1603125C691.1666666666666,105.15120833333333,693.5833333333334,105.14210416666666,696,105.133C698.4166666666666,105.12389583333334,700.8333333333334,105.11479166666666,703.25,105.1056875C705.6666666666666,105.09658333333334,708.0833333333334,105.08747916666667,710.5,105.078375C712.9166666666666,105.06927083333332,715.3333333333334,105.06016666666666,717.75,105.0510625C720.1666666666666,105.04195833333334,722.5833333333334,105.03285416666668,725,105.02375C727.4166666666666,105.01464583333333,729.8333333333334,105.00554166666666,732.25,104.9964375C734.6666666666666,104.98733333333334,737.0833333333334,104.97822916666667,739.5,104.969125C741.9166666666666,104.96002083333335,744.3333333333334,104.95091666666667,746.75,104.9418125C749.1666666666666,104.93270833333332,751.5833333333334,104.92360416666668,754,104.9145C756.4166666666666,104.90539583333333,758.8333333333334,104.89629166666666,761.25,104.8871875C763.6666666666666,104.87808333333334,766.0833333333334,104.86897916666666,768.5,104.859875C770.9166666666666,104.85077083333334,773.3333333333334,104.84166666666667,775.75,104.8325625C778.1666666666666,104.82345833333332,780.5833333333334,104.81435416666666,783,104.80525C785.4166666666667,104.79614583333333,787.8333333333334,104.78704166666667,790.2500000000001,104.7779375C792.6666666666667,104.76883333333333,795.0833333333335,104.75972916666666,797.5000000000001,104.750625C799.9166666666667,104.74152083333334,802.3333333333335,104.73241666666667,804.7500000000001,104.72331249999999C807.1666666666667,104.71420833333332,809.5833333333335,104.70510416666666,812.0000000000001,104.696C814.4166666666667,104.68689583333334,816.8333333333333,104.67779166666666,819.2499999999999,104.6686875C821.6666666666665,104.65958333333333,824.0833333333333,104.65047916666666,826.4999999999999,104.641375C828.9166666666665,104.63227083333334,831.3333333333333,104.62316666666666,833.7499999999999,104.6140625C836.1666666666665,104.60495833333334,838.5833333333333,104.59585416666665,840.9999999999999,104.58675C843.4166666666666,104.57764583333332,845.8333333333333,104.56854166666668,848.25,104.5594375C850.6666666666666,104.55033333333334,853.0833333333334,104.54122916666665,855.5,104.532125C857.9166666666666,104.52302083333333,860.3333333333334,104.51391666666666,862.75,104.5048125C865.1666666666666,104.49570833333334,867.5833333333334,104.48660416666667,870,104.47749999999999C872.4166666666666,104.46839583333332,874.8333333333334,104.45929166666667,877.25,104.4501875C879.6666666666666,104.44108333333332,882.0833333333334,104.43197916666665,884.5,104.42287499999999C886.9166666666666,104.41377083333333,889.3333333333334,104.40466666666666,891.75,104.3955625C894.1666666666666,104.38645833333334,896.5833333333334,104.37735416666666,899,104.36825C901.4166666666666,104.35914583333334,903.8333333333334,104.35004166666667,906.25,104.3409375C908.6666666666666,104.33183333333332,911.0833333333334,104.32272916666668,913.5,104.313625C915.9166666666666,104.30452083333333,918.3333333333334,104.29541666666665,920.75,104.2863125C923.1666666666666,104.27720833333333,925.5833333333334,104.26810416666666,928,104.259C930.4166666666666,104.24989583333334,932.8333333333334,104.24079166666665,935.25,104.23168749999999C937.6666666666666,104.22258333333333,940.0833333333334,104.21347916666667,942.5,104.20437500000001C944.9166666666666,104.19527083333335,947.3333333333334,104.18616666666667,949.75,104.17706249999999C952.1666666666666,104.16795833333332,954.5833333333334,104.15885416666666,957,104.14975C959.4166666666666,104.14064583333334,961.8333333333334,104.13154166666665,964.25,104.12243749999999C966.6666666666667,104.11333333333333,969.0833333333334,104.10422916666668,971.5000000000001,104.09512500000001C973.9166666666667,104.08602083333335,976.3333333333335,104.07691666666665,978.7500000000001,104.06781249999999C981.1666666666667,104.05870833333333,983.5833333333335,104.04960416666667,986.0000000000001,104.04050000000001C988.4166666666667,104.03139583333335,990.8333333333335,104.02229166666667,993.2500000000001,104.0131875C995.6666666666667,104.00408333333334,998.0833333333333,103.99497916666667,1000.4999999999999,103.98587500000001C1002.9166666666665,103.97677083333333,1005.3333333333333,103.96766666666667,1007.7499999999999,103.9585625C1010.1666666666665,103.94945833333333,1012.5833333333333,103.94035416666668,1014.9999999999999,103.93125C1017.4166666666665,103.92214583333333,1019.8333333333333,103.91304166666666,1022.2499999999999,103.9039375C1024.6666666666665,103.89483333333332,1027.0833333333333,103.88572916666666,1029.5,103.876625C1031.9166666666667,103.86752083333334,1034.3333333333333,103.85841666666667,1036.75,103.84931250000001C1039.1666666666667,103.84020833333335,1041.5833333333333,103.83110416666668,1044,103.822C1046.4166666666667,103.81289583333333,1048.8333333333333,103.80379166666665,1051.25,103.7946875C1053.6666666666667,103.78558333333334,1056.0833333333333,103.77647916666666,1058.5,103.767375C1060.9166666666667,103.75827083333334,1063.3333333333333,103.74916666666667,1065.75,103.74006250000001C1068.1666666666667,103.73095833333335,1070.5833333333333,103.72185416666667,1073,103.71275C1075.4166666666667,103.70364583333333,1077.8333333333333,103.69454166666665,1080.25,103.68543749999999C1082.6666666666667,103.67633333333333,1085.0833333333333,103.66722916666666,1087.5,103.658125C1089.9166666666667,103.64902083333334,1092.3333333333333,103.63991666666666,1094.75,103.6308125C1097.1666666666667,103.62170833333334,1099.5833333333333,103.61260416666667,1102,103.6035C1104.4166666666667,103.59439583333332,1106.8333333333333,103.58529166666666,1109.25,103.5761875C1111.6666666666667,103.56708333333334,1114.0833333333333,103.55797916666668,1116.5,103.54887500000001C1118.9166666666667,103.53977083333334,1121.3333333333333,103.53066666666666,1123.75,103.5215625C1126.1666666666667,103.51245833333334,1128.5833333333333,103.50335416666667,1131,103.49425000000001C1133.4166666666667,103.48514583333335,1135.8333333333333,103.47604166666667,1138.25,103.4669375C1140.6666666666667,103.45783333333333,1143.0833333333333,103.44872916666668,1145.5,103.439625C1147.9166666666667,103.43052083333333,1150.3333333333333,103.42141666666666,1152.75,103.4123125C1155.1666666666667,103.40320833333334,1157.5833333333333,103.40320833333334,1160,103.385C1162.4166666666667,103.36679166666667,1164.8333333333333,101.85166666666666,1167.25,101.085C1169.6666666666667,100.31833333333333,1172.0833333333333,99.55166666666666,1174.5,98.785C1176.9166666666667,98.01833333333333,1179.3333333333333,97.25166666666667,1181.75,96.485C1184.1666666666667,95.71833333333333,1186.5833333333333,94.95166666666667,1189,94.185C1191.4166666666667,93.41833333333334,1193.8333333333333,92.65166666666666,1196.25,91.88499999999999C1198.6666666666667,91.11833333333333,1201.0833333333333,90.35166666666667,1203.5,89.58500000000001C1205.9166666666667,88.81833333333334,1208.3333333333333,88.05166666666666,1210.75,87.285C1213.1666666666667,86.51833333333333,1215.5833333333333,85.75166666666667,1218,84.985C1220.4166666666667,84.21833333333333,1222.8333333333333,83.45166666666667,1225.25,82.685C1227.6666666666667,81.91833333333334,1230.0833333333333,81.15166666666667,1232.5,80.385C1234.9166666666667,79.61833333333334,1237.3333333333333,78.85166666666667,1239.75,78.08500000000001C1242.1666666666667,77.31833333333334,1244.5833333333333,76.55166666666666,1247,75.785C1249.4166666666667,75.01833333333333,1251.8333333333333,74.25166666666667,1254.25,73.485C1256.6666666666667,72.71833333333333,1259.0833333333333,71.95166666666667,1261.5,71.185C1263.9166666666667,70.41833333333334,1266.3333333333333,69.65166666666666,1268.75,68.88499999999999C1271.1666666666667,68.11833333333333,1273.5833333333333,67.35166666666666,1276,66.585C1278.4166666666667,65.81833333333333,1280.8333333333333,65.05166666666666,1283.25,64.285C1285.6666666666667,63.51833333333333,1288.0833333333333,62.75166666666666,1290.5,61.98499999999999C1292.9166666666667,61.21833333333333,1295.3333333333333,60.451666666666654,1297.75,59.68499999999999C1300.1666666666667,58.91833333333332,1302.5833333333333,58.151666666666664,1305,57.385C1307.4166666666667,56.61833333333333,1309.8333333333333,55.85166666666667,1312.25,55.085C1314.6666666666667,54.318333333333335,1317.0833333333333,53.55166666666666,1319.5,52.785C1321.9166666666667,52.01833333333333,1324.3333333333333,51.25166666666666,1326.75,50.48499999999999C1329.1666666666667,49.71833333333333,1331.5833333333333,48.95166666666667,1334,48.185C1336.4166666666667,47.41833333333334,1338.8333333333333,46.65166666666667,1341.25,45.885000000000005C1343.6666666666667,45.11833333333334,1346.0833333333333,44.35166666666667,1348.5,43.585C1350.9166666666667,42.818333333333335,1353.3333333333333,42.05166666666668,1355.75,41.28500000000001C1358.1666666666667,40.518333333333345,1360.5833333333333,39.751666666666665,1363,38.985C1365.4166666666667,38.218333333333334,1367.8333333333333,37.45166666666666,1370.25,36.684999999999995C1372.6666666666667,35.91833333333333,1375.0833333333333,35.15166666666667,1377.5,34.385000000000005C1379.9166666666667,33.61833333333334,1382.3333333333333,32.85166666666667,1384.75,32.085C1387.1666666666667,31.318333333333335,1389.5833333333333,30.551666666666666,1392,29.785C1394.4166666666667,29.018333333333334,1396.8333333333333,28.25166666666668,1399.25,27.48500000000001C1401.6666666666667,26.71833333333334,1404.0833333333333,25.951666666666654,1406.5,25.184999999999985C1408.9166666666667,24.418333333333315,1411.3333333333333,23.651666666666657,1413.75,22.884999999999994C1416.1666666666667,22.118333333333332,1418.5833333333333,21.35166666666667,1421,20.585000000000004C1423.4166666666667,19.81833333333334,1425.8333333333333,19.05166666666667,1428.25,18.285000000000004C1430.6666666666667,17.518333333333338,1433.0833333333333,16.751666666666665,1435.5,15.985000000000001C1437.9166666666667,15.218333333333335,1440.3333333333333,14.451666666666682,1442.75,13.685000000000013C1445.1666666666667,12.918333333333344,1447.5833333333333,12.151666666666664,1450,11.384999999999984" fill="transparent" stroke-linecap="round" stroke="#E7C6DF" stroke-width="2"></path><g class="visx-group visx-axis visx-axis-bottom" transform="translate(0, 115)"><g class="visx-group visx-axis-tick" transform="translate(0, 0)"><line class="visx-line" x1="0" y1="0" x2="0" y2="8" fill="transparent" shape-rendering="crispEdges" stroke="#000" stroke-width="0" stroke-linecap="square"></line><svg x="0" y="0" font-size="10" style="overflow:visible"><text transform="" x="0" y="18" fill="#000" font-size="10" text-anchor="middle"><tspan x="0" dy="0em">0%</tspan></text></svg></g><g class="visx-group visx-axis-tick" transform="translate(0, 0)"><line class="visx-line" x1="362.5" y1="0" x2="362.5" y2="8" fill="transparent" shape-rendering="crispEdges" stroke="#000" stroke-width="0" stroke-linecap="square"></line><svg x="0" y="0" font-size="10" style="overflow:visible"><text transform="" x="362.5" y="18" fill="#000" font-size="10" text-anchor="middle"><tspan x="362.5" dy="0em">25%</tspan></text></svg></g><g class="visx-group visx-axis-tick" transform="translate(0, 0)"><line class="visx-line" x1="725" y1="0" x2="725" y2="8" fill="transparent" shape-rendering="crispEdges" stroke="#000" stroke-width="0" stroke-linecap="square"></line><svg x="0" y="0" font-size="10" style="overflow:visible"><text transform="" x="725" y="18" fill="#000" font-size="10" text-anchor="middle"><tspan x="725" dy="0em">50%</tspan></text></svg></g><g class="visx-group visx-axis-tick" transform="translate(0, 0)"><line class="visx-line" x1="1087.5" y1="0" x2="1087.5" y2="8" fill="transparent" shape-rendering="crispEdges" stroke="#000" stroke-width="0" stroke-linecap="square"></line><svg x="0" y="0" font-size="10" style="overflow:visible"><text transform="" x="1087.5" y="18" fill="#000" font-size="10" text-anchor="middle"><tspan x="1087.5" dy="0em">75%</tspan></text></svg></g><g class="visx-group visx-axis-tick" transform="translate(0, 0)"><line class="visx-line" x1="1450" y1="0" x2="1450" y2="8" fill="transparent" shape-rendering="crispEdges" stroke="#000" stroke-width="0" stroke-linecap="square"></line><svg x="0" y="0" font-size="10" style="overflow:visible"><text transform="" x="1450" y="18" fill="#000" font-size="10" text-anchor="middle"><tspan x="1450" dy="0em">100%</tspan></text></svg></g><line class="visx-line visx-axis-line" x1="0.5" y1="0" x2="1450.5" y2="0" fill="transparent" shape-rendering="crispEdges" stroke="#222" stroke-width="0"></line></g><g class="visx-group visx-axis visx-axis-left" transform="translate(0, 0)"><g class="visx-group visx-axis-tick" transform="translate(0, 0)"><line class="visx-line" x1="0" y1="115" x2="-8" y2="115" fill="transparent" shape-rendering="crispEdges" stroke="#222" stroke-width="0" stroke-linecap="square"></line><svg x="-30" y="0" font-size="8" style="overflow:visible"><text transform="" x="-8" y="115" fill="#000" font-size="8" text-anchor="start"><tspan x="-8" dy="0em">0%</tspan></text></svg></g><g class="visx-group visx-axis-tick" transform="translate(0, 0)"><line class="visx-line" x1="0" y1="57.5" x2="-8" y2="57.5" fill="transparent" shape-rendering="crispEdges" stroke="#222" stroke-width="0" stroke-linecap="square"></line><svg x="-30" y="0" font-size="8" style="overflow:visible"><text transform="" x="-8" y="57.5" fill="#000" font-size="8" text-anchor="start"><tspan x="-8" dy="0em">50%</tspan></text></svg></g><g class="visx-group visx-axis-tick" transform="translate(0, 0)"><line class="visx-line" x1="0" y1="0" x2="-8" y2="0" fill="transparent" shape-rendering="crispEdges" stroke="#222" stroke-width="0" stroke-linecap="square"></line><svg x="-30" y="0" font-size="8" style="overflow:visible"><text transform="" x="-8" y="0" fill="#000" font-size="8" text-anchor="start"><tspan x="-8" dy="0em">100%</tspan></text></svg></g><line class="visx-line visx-axis-line" x1="0" y1="115.5" x2="0" y2="0.5" fill="transparent" shape-rendering="crispEdges" stroke="#222" stroke-width="0"></line></g><rect class="visx-bar" width="1450" height="115" fill="transparent"></rect><line class="visx-line" x1="1160" y1="28" x2="1160" y2="115" fill="transparent" shape-rendering="crispEdges" stroke="#0062D2" stroke-width="1" pointer-events="none" stroke-dasharray="5,2"></line><svg x="0" y="0" font-size="10px" style="overflow:visible"><text transform="" x="1160" y="20" font-size="10px" fill="#fff" stroke="#fff" stroke-width="0.8em" text-anchor="middle"><tspan x="1160" dy="0.355em">Optimal 80%</tspan></text></svg><svg x="0" y="0" font-size="10px" style="overflow:visible"><text transform="" x="1160" y="20" font-size="10px" fill="#62677B" text-anchor="middle"><tspan x="1160" dy="0.355em">Optimal 80%</tspan></text></svg></g></svg>