<?xml version="1.0"?><svg xmlns="http://www.w3.org/2000/svg" xmlns:xlink= "http://www.w3.org/1999/xlink" style="background: white;" width="1500" height="185"> <g style="color: black; font-size: 13px; font-family: sans-serif; transform: translate(18px, 25px);"><g><circle r="3" cx="-6" cy="-5" style="fill: #B6509E" /><text>Borrow APR, variable</text></g><g style="transform: translateX(150px);"><circle r="3" cx="-6" cy="-5" style="fill: rgb(231, 198, 223)" /><text>Borrow APR, stable</text></g><g style="transform: translateX(290px);"><circle r="3" cx="-6" cy="-5" style="fill: rgb(0, 98, 210)" /><text>Utilization Rate</text></g></g><g class="visx-group" transform="translate(40, 50)"><g class="visx-group visx-rows" transform="translate(0, 0)"><line class="visx-line" x1="0" y1="115" x2="1450" y2="115" fill="transparent" shape-rendering="crispEdges" stroke="#000" stroke-width="1" stroke-dasharray="3,3" pointer-events="none"></line><line class="visx-line" x1="0" y1="73.92857142857142" x2="1450" y2="73.92857142857142" fill="transparent" shape-rendering="crispEdges" stroke="#000" stroke-width="1" stroke-dasharray="3,3" pointer-events="none"></line><line class="visx-line" x1="0" y1="32.857142857142854" x2="1450" y2="32.857142857142854" fill="transparent" shape-rendering="crispEdges" stroke="#000" stroke-width="1" stroke-dasharray="3,3" pointer-events="none"></line></g><path class="visx-linepath" d="M0,114.17857142823259C2.4166666666666665,114.12209821408806,4.833333333333334,114.06562499994352,7.25,114.00915178571428C9.666666666666666,113.95267857148504,12.083333333333334,113.89620535714286,14.5,113.83973214285714C16.916666666666668,113.78325892857143,19.333333333333332,113.72678571428571,21.75,113.6703125C24.166666666666668,113.61383928571428,26.583333333333332,113.55736607142858,29,113.50089285714286C31.416666666666668,113.44441964285714,33.833333333333336,113.38794642857142,36.25,113.33147321428571C38.666666666666664,113.27499999999999,41.083333333333336,113.21852678571429,43.5,113.16205357142857C45.91666666666667,113.10558035714286,48.333333333333336,113.04910714285714,50.75000000000001,112.99263392857142C53.16666666666667,112.9361607142857,55.583333333333336,112.8796875,58,112.82321428571429C60.416666666666664,112.76674107142857,62.833333333333336,112.71026785714285,65.25,112.65379464285714C67.66666666666667,112.59732142857142,70.08333333333333,112.54084821428572,72.5,112.484375C74.91666666666667,112.42790178571428,77.33333333333333,112.37142857142857,79.75,112.31495535714285C82.16666666666667,112.25848214285713,84.58333333333333,112.20200892857143,87,112.14553571428571C89.41666666666667,112.0890625,91.83333333333333,112.03258928571428,94.25,111.97611607142856C96.66666666666667,111.91964285714285,99.08333333333334,111.86316964285714,101.50000000000001,111.80669642857143C103.91666666666667,111.75022321428571,106.33333333333334,111.69375,108.75,111.63727678571428C111.16666666666667,111.58080357142856,113.58333333333333,111.52433035714286,116,111.46785714285714C118.41666666666667,111.41138392857142,120.83333333333334,111.35491071428571,123.25000000000001,111.29843749999999C125.66666666666667,111.24196428571427,128.08333333333334,111.18549107142857,130.5,111.12901785714286C132.91666666666666,111.07254464285714,135.33333333333334,111.01607142857142,137.75,110.9595982142857C140.16666666666666,110.90312499999999,142.58333333333334,110.84665178571429,145,110.79017857142857C147.41666666666666,110.73370535714285,149.83333333333334,110.67723214285714,152.25,110.62075892857142C154.66666666666666,110.5642857142857,157.08333333333334,110.5078125,159.5,110.45133928571428C161.91666666666666,110.39486607142857,164.33333333333334,110.33839285714285,166.75,110.28191964285713C169.16666666666666,110.22544642857142,171.58333333333334,110.16897321428571,174,110.1125C176.41666666666666,110.05602678571428,178.83333333333334,109.99955357142856,181.25,109.94308035714285C183.66666666666666,109.88660714285713,186.08333333333334,109.83013392857143,188.5,109.77366071428571C190.91666666666666,109.7171875,193.33333333333334,109.66071428571428,195.75,109.60424107142856C198.16666666666669,109.54776785714284,200.58333333333334,109.49129464285714,203.00000000000003,109.43482142857142C205.41666666666669,109.37834821428571,207.83333333333331,109.32187499999999,210.24999999999997,109.26540178571427C212.66666666666666,109.20892857142856,215.08333333333331,109.15245535714286,217.5,109.09598214285714C219.91666666666666,109.03950892857142,222.33333333333334,108.9830357142857,224.75,108.92656249999999C227.16666666666666,108.87008928571427,229.58333333333334,108.81361607142857,232,108.75714285714285C234.41666666666666,108.70066964285714,236.83333333333334,108.64419642857143,239.25,108.58772321428572C241.66666666666669,108.53125,244.08333333333334,108.47477678571428,246.50000000000003,108.41830357142857C248.91666666666669,108.36183035714285,251.33333333333331,108.30535714285715,253.74999999999997,108.24888392857143C256.16666666666663,108.19241071428571,258.5833333333333,108.1359375,261,108.07946428571428C263.4166666666667,108.02299107142856,265.8333333333333,107.96651785714286,268.25,107.91004464285714C270.6666666666667,107.85357142857143,273.0833333333333,107.79709821428573,275.5,107.74062500000001C277.9166666666667,107.68415178571429,280.3333333333333,107.62767857142858,282.75,107.57120535714286C285.1666666666667,107.51473214285714,287.5833333333333,107.45825892857144,290,107.40178571428572C292.4166666666667,107.3453125,294.8333333333333,107.28883928571429,297.25,107.23236607142857C299.6666666666667,107.17589285714286,302.0833333333333,107.11941964285715,304.5,107.06294642857144C306.9166666666667,107.00647321428572,309.3333333333333,106.95,311.75,106.89352678571429C314.1666666666667,106.83705357142857,316.5833333333333,106.78058035714287,319,106.72410714285715C321.4166666666667,106.66763392857143,323.8333333333333,106.61116071428572,326.25,106.5546875C328.6666666666667,106.49821428571428,331.0833333333333,106.44174107142858,333.5,106.38526785714286C335.9166666666667,106.32879464285715,338.3333333333333,106.27232142857143,340.75,106.21584821428571C343.1666666666667,106.159375,345.5833333333333,106.1029017857143,348,106.04642857142858C350.4166666666667,105.98995535714286,352.8333333333333,105.93348214285714,355.25,105.87700892857143C357.6666666666667,105.82053571428571,360.0833333333333,105.76406250000001,362.5,105.70758928571429C364.9166666666667,105.65111607142858,367.3333333333333,105.59464285714286,369.75,105.53816964285714C372.1666666666667,105.48169642857142,374.5833333333333,105.42522321428572,377,105.36875C379.4166666666667,105.31227678571429,381.8333333333333,105.25580357142857,384.25,105.19933035714286C386.6666666666667,105.14285714285714,389.0833333333333,105.08638392857144,391.5,105.02991071428572C393.9166666666667,104.9734375,396.33333333333337,104.91696428571429,398.75000000000006,104.86049107142857C401.16666666666674,104.80401785714285,403.58333333333337,104.74754464285715,406.00000000000006,104.69107142857143C408.4166666666667,104.63459821428572,410.8333333333333,104.578125,413.24999999999994,104.52165178571428C415.66666666666663,104.46517857142857,418.08333333333326,104.40870535714286,420.49999999999994,104.35223214285715C422.91666666666663,104.29575892857143,425.3333333333333,104.23928571428571,427.75,104.1828125C430.1666666666667,104.12633928571428,432.5833333333333,104.06986607142858,435,104.01339285714286C437.4166666666667,103.95691964285714,439.8333333333333,103.90044642857143,442.25,103.84397321428571C444.6666666666667,103.7875,447.0833333333333,103.73102678571429,449.5,103.67455357142858C451.9166666666667,103.61808035714286,454.3333333333333,103.56160714285716,456.75,103.50513392857144C459.1666666666667,103.44866071428572,461.5833333333333,103.3921875,464,103.33571428571429C466.4166666666667,103.27924107142857,468.8333333333333,103.22276785714286,471.25,103.16629464285714C473.6666666666667,103.10982142857142,476.0833333333333,103.05334821428572,478.5,102.996875C480.9166666666667,102.94040178571429,483.33333333333337,102.88392857142858,485.75000000000006,102.82745535714287C488.16666666666674,102.77098214285715,490.58333333333337,102.71450892857143,493.00000000000006,102.65803571428572C495.4166666666667,102.6015625,497.8333333333333,102.54508928571428,500.24999999999994,102.48861607142857C502.66666666666663,102.43214285714285,505.08333333333326,102.37566964285715,507.49999999999994,102.31919642857143C509.91666666666663,102.26272321428571,512.3333333333333,102.20625,514.75,102.14977678571428C517.1666666666666,102.09330357142856,519.5833333333334,102.03683035714286,522,101.98035714285714C524.4166666666666,101.92388392857143,526.8333333333334,101.86741071428573,529.25,101.81093750000001C531.6666666666666,101.75446428571429,534.0833333333334,101.69799107142858,536.5,101.64151785714286C538.9166666666666,101.58504464285714,541.3333333333334,101.52857142857144,543.75,101.47209821428572C546.1666666666666,101.415625,548.5833333333334,101.35915178571429,551,101.30267857142857C553.4166666666666,101.24620535714286,555.8333333333334,101.18973214285714,558.25,101.13325892857142C560.6666666666666,101.0767857142857,563.0833333333334,101.0203125,565.5,100.96383928571429C567.9166666666666,100.90736607142857,570.3333333333334,100.85089285714287,572.75,100.79441964285715C575.1666666666666,100.73794642857143,577.5833333333334,100.68147321428572,580,100.625C582.4166666666666,100.56852678571428,584.8333333333334,100.51205357142857,587.25,100.45558035714285C589.6666666666666,100.39910714285713,592.0833333333334,100.34263392857143,594.5,100.28616071428571C596.9166666666666,100.2296875,599.3333333333334,100.1732142857143,601.75,100.11674107142858C604.1666666666666,100.06026785714286,606.5833333333334,100.00379464285714,609,99.94732142857143C611.4166666666666,99.89084821428571,613.8333333333334,99.834375,616.25,99.77790178571428C618.6666666666666,99.72142857142856,621.0833333333334,99.66495535714286,623.5,99.60848214285714C625.9166666666666,99.55200892857142,628.3333333333334,99.49553571428572,630.75,99.4390625C633.1666666666666,99.38258928571429,635.5833333333334,99.32611607142857,638,99.26964285714286C640.4166666666666,99.21316964285714,642.8333333333334,99.15669642857142,645.25,99.1002232142857C647.6666666666666,99.04374999999999,650.0833333333334,98.98727678571429,652.5,98.93080357142857C654.9166666666666,98.87433035714285,657.3333333333334,98.81785714285715,659.75,98.76138392857143C662.1666666666666,98.70491071428572,664.5833333333334,98.6484375,667,98.59196428571428C669.4166666666666,98.53549107142857,671.8333333333334,98.47901785714285,674.25,98.42254464285713C676.6666666666666,98.36607142857142,679.0833333333334,98.30959821428571,681.5,98.253125C683.9166666666666,98.19665178571428,686.3333333333334,98.14017857142858,688.75,98.08370535714286C691.1666666666666,98.02723214285714,693.5833333333334,97.97075892857143,696,97.91428571428571C698.4166666666666,97.8578125,700.8333333333334,97.80133928571428,703.25,97.74486607142856C705.6666666666666,97.68839285714284,708.0833333333334,97.63191964285714,710.5,97.57544642857142C712.9166666666666,97.51897321428571,715.3333333333334,97.4625,717.75,97.40602678571429C720.1666666666666,97.34955357142857,722.5833333333334,97.29308035714286,725,97.23660714285714C727.4166666666666,97.18013392857142,729.8333333333334,97.1236607142857,732.25,97.06718749999999C734.6666666666666,97.01071428571427,737.0833333333334,96.95424107142857,739.5,96.89776785714285C741.9166666666666,96.84129464285714,744.3333333333334,96.78482142857143,746.75,96.72834821428572C749.1666666666666,96.671875,751.5833333333334,96.61540178571428,754,96.55892857142857C756.4166666666666,96.50245535714285,758.8333333333334,96.44598214285713,761.25,96.38950892857142C763.6666666666666,96.3330357142857,766.0833333333334,96.2765625,768.5,96.22008928571428C770.9166666666666,96.16361607142856,773.3333333333334,96.10714285714286,775.75,96.05066964285714C778.1666666666666,95.99419642857143,780.5833333333334,95.93772321428571,783,95.88125C785.4166666666667,95.82477678571428,787.8333333333334,95.76830357142858,790.2500000000001,95.71183035714286C792.6666666666667,95.65535714285714,795.0833333333335,95.59888392857142,797.5000000000001,95.54241071428571C799.9166666666667,95.48593749999999,802.3333333333335,95.42946428571429,804.7500000000001,95.37299107142857C807.1666666666667,95.31651785714286,809.5833333333335,95.26004464285714,812.0000000000001,95.20357142857142C814.4166666666667,95.1470982142857,816.8333333333333,95.090625,819.2499999999999,95.03415178571429C821.6666666666665,94.97767857142857,824.0833333333333,94.92120535714285,826.4999999999999,94.86473214285714C828.9166666666665,94.80825892857142,831.3333333333333,94.75178571428572,833.7499999999999,94.6953125C836.1666666666665,94.63883928571428,838.5833333333333,94.58236607142857,840.9999999999999,94.52589285714285C843.4166666666666,94.46941964285713,845.8333333333333,94.41294642857143,848.25,94.35647321428571C850.6666666666666,94.3,853.0833333333334,94.24352678571428,855.5,94.18705357142856C857.9166666666666,94.13058035714285,860.3333333333334,94.07410714285714,862.75,94.01763392857143C865.1666666666666,93.96116071428571,867.5833333333334,93.9046875,870,93.84821428571428C872.4166666666666,93.79174107142856,874.8333333333334,93.73526785714286,877.25,93.67879464285714C879.6666666666666,93.62232142857142,882.0833333333334,93.56584821428571,884.5,93.50937499999999C886.9166666666666,93.45290178571427,889.3333333333334,93.39642857142857,891.75,93.33995535714286C894.1666666666666,93.28348214285714,896.5833333333334,93.22700892857144,899,93.17053571428572C901.4166666666666,93.1140625,903.8333333333334,93.05758928571429,906.25,93.00111607142857C908.6666666666666,92.94464285714285,911.0833333333334,92.88816964285715,913.5,92.83169642857143C915.9166666666666,92.77522321428572,918.3333333333334,92.71875,920.75,92.66227678571428C923.1666666666666,92.60580357142857,925.5833333333334,92.54933035714286,928,92.49285714285715C930.4166666666666,92.43638392857143,932.8333333333334,92.37991071428573,935.25,92.32343750000001C937.6666666666666,92.2669642857143,940.0833333333334,92.21049107142858,942.5,92.15401785714286C944.9166666666666,92.09754464285714,947.3333333333334,92.04107142857144,949.75,91.98459821428573C952.1666666666666,91.92812500000001,954.5833333333334,91.87165178571429,957,91.81517857142858C959.4166666666666,91.75870535714286,961.8333333333334,91.70223214285714,964.25,91.64575892857142C966.6666666666667,91.58928571428571,969.0833333333334,91.5328125,971.5000000000001,91.47633928571429C973.9166666666667,91.41986607142857,976.3333333333335,91.36339285714287,978.7500000000001,91.30691964285715C981.1666666666667,91.25044642857144,983.5833333333335,91.19397321428572,986.0000000000001,91.1375C988.4166666666667,91.08102678571429,990.8333333333335,91.02455357142857,993.2500000000001,90.96808035714285C995.6666666666667,90.91160714285714,998.0833333333333,90.85513392857143,1000.4999999999999,90.79866071428572C1002.9166666666665,90.7421875,1005.3333333333333,90.6857142857143,1007.7499999999999,90.62924107142858C1010.1666666666665,90.57276785714286,1012.5833333333333,90.51629464285715,1014.9999999999999,90.45982142857143C1017.4166666666665,90.40334821428571,1019.8333333333333,90.34687500000001,1022.2499999999999,90.2904017857143C1024.6666666666665,90.23392857142858,1027.0833333333333,90.17745535714286,1029.5,90.12098214285714C1031.9166666666667,90.06450892857143,1034.3333333333333,90.00803571428573,1036.75,89.95156250000001C1039.1666666666667,89.89508928571429,1041.5833333333333,89.83861607142858,1044,89.78214285714286C1046.4166666666667,89.72566964285714,1048.8333333333333,89.66919642857144,1051.25,89.61272321428572C1053.6666666666667,89.55625,1056.0833333333333,89.49977678571429,1058.5,89.44330357142857C1060.9166666666667,89.38683035714286,1063.3333333333333,89.33035714285715,1065.75,89.27388392857144C1068.1666666666667,89.21741071428572,1070.5833333333333,89.1609375,1073,89.10446428571429C1075.4166666666667,89.04799107142857,1077.8333333333333,88.99151785714287,1080.25,88.93504464285715C1082.6666666666667,88.87857142857143,1085.0833333333333,88.82209821428572,1087.5,88.765625C1089.9166666666667,88.70915178571428,1092.3333333333333,88.65267857142858,1094.75,88.59620535714286C1097.1666666666667,88.53973214285715,1099.5833333333333,88.48325892857143,1102,88.42678571428571C1104.4166666666667,88.3703125,1106.8333333333333,88.3138392857143,1109.25,88.25736607142858C1111.6666666666667,88.20089285714286,1114.0833333333333,88.14441964285714,1116.5,88.08794642857143C1118.9166666666667,88.03147321428571,1121.3333333333333,87.97500000000001,1123.75,87.91852678571429C1126.1666666666667,87.86205357142858,1128.5833333333333,87.80558035714286,1131,87.74910714285714C1133.4166666666667,87.69263392857142,1135.8333333333333,87.63616071428572,1138.25,87.5796875C1140.6666666666667,87.52321428571429,1143.0833333333333,87.46674107142857,1145.5,87.41026785714286C1147.9166666666667,87.35379464285714,1150.3333333333333,87.29732142857144,1152.75,87.24084821428572C1155.1666666666667,87.184375,1157.5833333333333,87.184375,1160,87.07142857142857C1162.4166666666667,86.95848214285714,1164.8333333333333,85.97619047619048,1167.25,85.42857142857143C1169.6666666666667,84.88095238095238,1172.0833333333333,84.33333333333334,1174.5,83.78571428571429C1176.9166666666667,83.23809523809524,1179.3333333333333,82.69047619047619,1181.75,82.14285714285714C1184.1666666666667,81.59523809523809,1186.5833333333333,81.04761904761905,1189,80.5C1191.4166666666667,79.95238095238095,1193.8333333333333,79.40476190476191,1196.25,78.85714285714286C1198.6666666666667,78.30952380952381,1201.0833333333333,77.76190476190477,1203.5,77.21428571428572C1205.9166666666667,76.66666666666667,1208.3333333333333,76.11904761904762,1210.75,75.57142857142857C1213.1666666666667,75.02380952380952,1215.5833333333333,74.47619047619047,1218,73.92857142857142C1220.4166666666667,73.38095238095237,1222.8333333333333,72.83333333333331,1225.25,72.28571428571428C1227.6666666666667,71.73809523809524,1230.0833333333333,71.1904761904762,1232.5,70.64285714285715C1234.9166666666667,70.0952380952381,1237.3333333333333,69.54761904761904,1239.75,68.99999999999999C1242.1666666666667,68.45238095238093,1244.5833333333333,67.90476190476191,1247,67.35714285714286C1249.4166666666667,66.80952380952381,1251.8333333333333,66.26190476190476,1254.25,65.71428571428571C1256.6666666666667,65.16666666666666,1259.0833333333333,64.61904761904762,1261.5,64.07142857142857C1263.9166666666667,63.523809523809526,1266.3333333333333,62.97619047619048,1268.75,62.42857142857144C1271.1666666666667,61.880952380952394,1273.5833333333333,61.333333333333336,1276,60.785714285714285C1278.4166666666667,60.238095238095234,1280.8333333333333,59.69047619047618,1283.25,59.14285714285714C1285.6666666666667,58.595238095238095,1288.0833333333333,58.047619047619044,1290.5,57.5C1292.9166666666667,56.952380952380956,1295.3333333333333,56.404761904761905,1297.75,55.85714285714286C1300.1666666666667,55.30952380952382,1302.5833333333333,54.76190476190476,1305,54.214285714285715C1307.4166666666667,53.66666666666667,1309.8333333333333,53.11904761904763,1312.25,52.57142857142858C1314.6666666666667,52.023809523809526,1317.0833333333333,51.47619047619047,1319.5,50.92857142857142C1321.9166666666667,50.38095238095238,1324.3333333333333,49.833333333333336,1326.75,49.28571428571429C1329.1666666666667,48.73809523809525,1331.5833333333333,48.19047619047619,1334,47.64285714285714C1336.4166666666667,47.09523809523809,1338.8333333333333,46.547619047619044,1341.25,46C1343.6666666666667,45.452380952380956,1346.0833333333333,44.9047619047619,1348.5,44.357142857142854C1350.9166666666667,43.80952380952381,1353.3333333333333,43.26190476190476,1355.75,42.714285714285715C1358.1666666666667,42.16666666666667,1360.5833333333333,41.61904761904761,1363,41.07142857142857C1365.4166666666667,40.523809523809526,1367.8333333333333,39.976190476190474,1370.25,39.42857142857143C1372.6666666666667,38.88095238095239,1375.0833333333333,38.33333333333334,1377.5,37.78571428571429C1379.9166666666667,37.23809523809524,1382.3333333333333,36.69047619047618,1384.75,36.14285714285714C1387.1666666666667,35.595238095238095,1389.5833333333333,35.04761904761905,1392,34.50000000000001C1394.4166666666667,33.95238095238096,1396.8333333333333,33.404761904761905,1399.25,32.857142857142854C1401.6666666666667,32.3095238095238,1404.0833333333333,31.761904761904766,1406.5,31.21428571428572C1408.9166666666667,30.66666666666667,1411.3333333333333,30.119047619047617,1413.75,29.57142857142857C1416.1666666666667,29.023809523809522,1418.5833333333333,28.476190476190478,1421,27.92857142857143C1423.4166666666667,27.380952380952383,1425.8333333333333,26.833333333333332,1428.25,26.28571428571428C1430.6666666666667,25.73809523809523,1433.0833333333333,25.190476190476183,1435.5,24.64285714285713C1437.9166666666667,24.09523809523808,1440.3333333333333,23.547619047619026,1442.75,22.999999999999982C1445.1666666666667,22.45238095238094,1447.5833333333333,21.904761904761905,1450,21.357142857142872" fill="transparent" stroke-linecap="round" stroke="#B6509E" stroke-width="2"></path><path class="visx-linepath" d="M0,85.42857142853036C2.4166666666666665,85.42172619045225,4.833333333333334,85.41488095237412,7.25,85.40803571428573C9.666666666666666,85.40119047619734,12.083333333333334,85.39434523809523,14.5,85.38749999999999C16.916666666666668,85.38065476190475,19.333333333333332,85.37380952380953,21.75,85.36696428571429C24.166666666666668,85.36011904761905,26.583333333333332,85.35327380952381,29,85.34642857142858C31.416666666666668,85.33958333333334,33.833333333333336,85.33273809523808,36.25,85.32589285714285C38.666666666666664,85.31904761904761,41.083333333333336,85.31220238095239,43.5,85.30535714285715C45.91666666666667,85.29851190476191,48.333333333333336,85.29166666666667,50.75000000000001,85.28482142857143C53.16666666666667,85.2779761904762,55.583333333333336,85.27113095238096,58,85.26428571428572C60.416666666666664,85.25744047619048,62.833333333333336,85.25059523809523,65.25,85.24374999999999C67.66666666666667,85.23690476190475,70.08333333333333,85.23005952380953,72.5,85.22321428571429C74.91666666666667,85.21636904761905,77.33333333333333,85.2095238095238,79.75,85.20267857142856C82.16666666666667,85.19583333333333,84.58333333333333,85.18898809523809,87,85.18214285714285C89.41666666666667,85.17529761904761,91.83333333333333,85.16845238095239,94.25,85.16160714285715C96.66666666666667,85.15476190476191,99.08333333333334,85.14791666666666,101.50000000000001,85.14107142857142C103.91666666666667,85.13422619047618,106.33333333333334,85.12738095238095,108.75,85.12053571428571C111.16666666666667,85.11369047619047,113.58333333333333,85.10684523809523,116,85.1C118.41666666666667,85.09315476190476,120.83333333333334,85.08630952380952,123.25000000000001,85.07946428571428C125.66666666666667,85.07261904761904,128.08333333333334,85.0657738095238,130.5,85.05892857142857C132.91666666666666,85.05208333333333,135.33333333333334,85.04523809523809,137.75,85.03839285714285C140.16666666666666,85.03154761904761,142.58333333333334,85.02470238095239,145,85.01785714285715C147.41666666666666,85.01101190476192,149.83333333333334,85.00416666666666,152.25,84.99732142857142C154.66666666666666,84.99047619047619,157.08333333333334,84.98363095238095,159.5,84.97678571428571C161.91666666666666,84.96994047619047,164.33333333333334,84.96309523809524,166.75,84.95625C169.16666666666666,84.94940476190476,171.58333333333334,84.94255952380952,174,84.93571428571428C176.41666666666666,84.92886904761905,178.83333333333334,84.92202380952381,181.25,84.91517857142857C183.66666666666666,84.90833333333333,186.08333333333334,84.9014880952381,188.5,84.89464285714286C190.91666666666666,84.88779761904762,193.33333333333334,84.88095238095238,195.75,84.87410714285714C198.16666666666669,84.8672619047619,200.58333333333334,84.86041666666665,203.00000000000003,84.85357142857141C205.41666666666669,84.84672619047618,207.83333333333331,84.83988095238095,210.24999999999997,84.83303571428571C212.66666666666666,84.82619047619048,215.08333333333331,84.81934523809524,217.5,84.8125C219.91666666666666,84.80565476190476,222.33333333333334,84.79880952380951,224.75,84.79196428571427C227.16666666666666,84.78511904761903,229.58333333333334,84.77827380952381,232,84.77142857142857C234.41666666666666,84.76458333333333,236.83333333333334,84.7577380952381,239.25,84.75089285714286C241.66666666666669,84.74404761904762,244.08333333333334,84.73720238095238,246.50000000000003,84.73035714285714C248.91666666666669,84.7235119047619,251.33333333333331,84.71666666666665,253.74999999999997,84.70982142857142C256.16666666666663,84.70297619047618,258.5833333333333,84.69613095238095,261,84.68928571428572C263.4166666666667,84.68244047619048,265.8333333333333,84.67559523809523,268.25,84.66874999999999C270.6666666666667,84.66190476190475,273.0833333333333,84.65505952380951,275.5,84.64821428571427C277.9166666666667,84.64136904761904,280.3333333333333,84.63452380952381,282.75,84.62767857142858C285.1666666666667,84.62083333333334,287.5833333333333,84.6139880952381,290,84.60714285714286C292.4166666666667,84.60029761904762,294.8333333333333,84.59345238095237,297.25,84.58660714285713C299.6666666666667,84.5797619047619,302.0833333333333,84.57291666666666,304.5,84.56607142857142C306.9166666666667,84.55922619047618,309.3333333333333,84.55238095238096,311.75,84.54553571428572C314.1666666666667,84.53869047619048,316.5833333333333,84.53184523809523,319,84.52499999999999C321.4166666666667,84.51815476190475,323.8333333333333,84.51130952380952,326.25,84.50446428571428C328.6666666666667,84.49761904761904,331.0833333333333,84.49077380952382,333.5,84.48392857142858C335.9166666666667,84.47708333333334,338.3333333333333,84.47023809523809,340.75,84.46339285714285C343.1666666666667,84.45654761904761,345.5833333333333,84.44970238095237,348,84.44285714285714C350.4166666666667,84.4360119047619,352.8333333333333,84.42916666666666,355.25,84.42232142857142C357.6666666666667,84.41547619047618,360.0833333333333,84.40863095238096,362.5,84.40178571428572C364.9166666666667,84.39494047619048,367.3333333333333,84.38809523809523,369.75,84.38125C372.1666666666667,84.37440476190476,374.5833333333333,84.36755952380952,377,84.36071428571428C379.4166666666667,84.35386904761904,381.8333333333333,84.34702380952382,384.25,84.34017857142858C386.6666666666667,84.33333333333334,389.0833333333333,84.32648809523809,391.5,84.31964285714285C393.9166666666667,84.31279761904761,396.33333333333337,84.30595238095238,398.75000000000006,84.29910714285714C401.16666666666674,84.2922619047619,403.58333333333337,84.28541666666666,406.00000000000006,84.27857142857142C408.4166666666667,84.27172619047619,410.8333333333333,84.26488095238095,413.24999999999994,84.25803571428571C415.66666666666663,84.25119047619047,418.08333333333326,84.24434523809524,420.49999999999994,84.2375C422.91666666666663,84.23065476190476,425.3333333333333,84.22380952380952,427.75,84.21696428571428C430.1666666666667,84.21011904761905,432.5833333333333,84.20327380952382,435,84.19642857142858C437.4166666666667,84.18958333333335,439.8333333333333,84.1827380952381,442.25,84.17589285714286C444.6666666666667,84.16904761904762,447.0833333333333,84.16220238095238,449.5,84.15535714285714C451.9166666666667,84.1485119047619,454.3333333333333,84.14166666666667,456.75,84.13482142857143C459.1666666666667,84.12797619047619,461.5833333333333,84.12113095238095,464,84.11428571428571C466.4166666666667,84.10744047619048,468.8333333333333,84.10059523809524,471.25,84.09375C473.6666666666667,84.08690476190476,476.0833333333333,84.08005952380952,478.5,84.07321428571429C480.9166666666667,84.06636904761905,483.33333333333337,84.05952380952382,485.75000000000006,84.05267857142859C488.16666666666674,84.04583333333335,490.58333333333337,84.03898809523808,493.00000000000006,84.03214285714284C495.4166666666667,84.0252976190476,497.8333333333333,84.01845238095238,500.24999999999994,84.01160714285714C502.66666666666663,84.0047619047619,505.08333333333326,83.99791666666667,507.49999999999994,83.99107142857143C509.91666666666663,83.98422619047619,512.3333333333333,83.97738095238095,514.75,83.97053571428572C517.1666666666666,83.96369047619048,519.5833333333334,83.95684523809524,522,83.95C524.4166666666666,83.94315476190476,526.8333333333334,83.93630952380953,529.25,83.92946428571429C531.6666666666666,83.92261904761905,534.0833333333334,83.91577380952381,536.5,83.90892857142858C538.9166666666666,83.90208333333334,541.3333333333334,83.89523809523808,543.75,83.88839285714285C546.1666666666666,83.88154761904761,548.5833333333334,83.87470238095239,551,83.86785714285715C553.4166666666666,83.86101190476191,555.8333333333334,83.85416666666667,558.25,83.84732142857143C560.6666666666666,83.8404761904762,563.0833333333334,83.83363095238094,565.5,83.8267857142857C567.9166666666666,83.81994047619047,570.3333333333334,83.81309523809524,572.75,83.80625C575.1666666666666,83.79940476190477,577.5833333333334,83.79255952380953,580,83.78571428571429C582.4166666666666,83.77886904761905,584.8333333333334,83.77202380952382,587.25,83.76517857142858C589.6666666666666,83.75833333333334,592.0833333333334,83.75148809523809,594.5,83.74464285714285C596.9166666666666,83.73779761904761,599.3333333333334,83.73095238095239,601.75,83.72410714285715C604.1666666666666,83.71726190476191,606.5833333333334,83.71041666666667,609,83.70357142857144C611.4166666666666,83.6967261904762,613.8333333333334,83.68988095238095,616.25,83.68303571428571C618.6666666666666,83.67619047619047,621.0833333333334,83.66934523809525,623.5,83.66250000000001C625.9166666666666,83.65565476190477,628.3333333333334,83.64880952380953,630.75,83.6419642857143C633.1666666666666,83.63511904761906,635.5833333333334,83.6282738095238,638,83.62142857142857C640.4166666666666,83.61458333333333,642.8333333333334,83.60773809523809,645.25,83.60089285714285C647.6666666666666,83.59404761904761,650.0833333333334,83.58720238095239,652.5,83.58035714285715C654.9166666666666,83.57351190476192,657.3333333333334,83.56666666666666,659.75,83.55982142857142C662.1666666666666,83.55297619047619,664.5833333333334,83.54613095238095,667,83.53928571428571C669.4166666666666,83.53244047619047,671.8333333333334,83.52559523809525,674.25,83.51875000000001C676.6666666666666,83.51190476190477,679.0833333333334,83.5050595238095,681.5,83.49821428571427C683.9166666666666,83.49136904761903,686.3333333333334,83.48452380952381,688.75,83.47767857142857C691.1666666666666,83.47083333333333,693.5833333333334,83.4639880952381,696,83.45714285714286C698.4166666666666,83.45029761904762,700.8333333333334,83.44345238095238,703.25,83.43660714285714C705.6666666666666,83.4297619047619,708.0833333333334,83.42291666666667,710.5,83.41607142857143C712.9166666666666,83.40922619047619,715.3333333333334,83.40238095238095,717.75,83.39553571428571C720.1666666666666,83.38869047619048,722.5833333333334,83.38184523809524,725,83.375C727.4166666666666,83.36815476190476,729.8333333333334,83.36130952380951,732.25,83.35446428571427C734.6666666666666,83.34761904761903,737.0833333333334,83.34077380952381,739.5,83.33392857142857C741.9166666666666,83.32708333333333,744.3333333333334,83.3202380952381,746.75,83.31339285714286C749.1666666666666,83.30654761904762,751.5833333333334,83.29970238095237,754,83.29285714285713C756.4166666666666,83.28601190476189,758.8333333333334,83.27916666666667,761.25,83.27232142857143C763.6666666666666,83.26547619047619,766.0833333333334,83.25863095238095,768.5,83.25178571428572C770.9166666666666,83.24494047619048,773.3333333333334,83.23809523809524,775.75,83.23125C778.1666666666666,83.22440476190476,780.5833333333334,83.21755952380951,783,83.21071428571427C785.4166666666667,83.20386904761904,787.8333333333334,83.19702380952381,790.2500000000001,83.19017857142858C792.6666666666667,83.18333333333334,795.0833333333335,83.1764880952381,797.5000000000001,83.16964285714286C799.9166666666667,83.16279761904762,802.3333333333335,83.15595238095237,804.7500000000001,83.14910714285713C807.1666666666667,83.1422619047619,809.5833333333335,83.13541666666667,812.0000000000001,83.12857142857143C814.4166666666667,83.1217261904762,816.8333333333333,83.11488095238096,819.2499999999999,83.10803571428572C821.6666666666665,83.10119047619048,824.0833333333333,83.09434523809523,826.4999999999999,83.08749999999999C828.9166666666665,83.08065476190475,831.3333333333333,83.07380952380952,833.7499999999999,83.06696428571428C836.1666666666665,83.06011904761904,838.5833333333333,83.05327380952382,840.9999999999999,83.04642857142858C843.4166666666666,83.03958333333334,845.8333333333333,83.0327380952381,848.25,83.02589285714286C850.6666666666666,83.01904761904763,853.0833333333334,83.01220238095237,855.5,83.00535714285714C857.9166666666666,82.9985119047619,860.3333333333334,82.99166666666667,862.75,82.98482142857144C865.1666666666666,82.9779761904762,867.5833333333334,82.97113095238095,870,82.96428571428571C872.4166666666666,82.95744047619047,874.8333333333334,82.95059523809523,877.25,82.94375C879.6666666666666,82.93690476190476,882.0833333333334,82.93005952380952,884.5,82.92321428571428C886.9166666666666,82.91636904761904,889.3333333333334,82.90952380952382,891.75,82.90267857142858C894.1666666666666,82.89583333333334,896.5833333333334,82.88898809523809,899,82.88214285714285C901.4166666666666,82.87529761904761,903.8333333333334,82.86845238095238,906.25,82.86160714285714C908.6666666666666,82.8547619047619,911.0833333333334,82.84791666666668,913.5,82.84107142857144C915.9166666666666,82.8342261904762,918.3333333333334,82.82738095238095,920.75,82.82053571428571C923.1666666666666,82.81369047619047,925.5833333333334,82.80684523809524,928,82.8C930.4166666666666,82.79315476190476,932.8333333333334,82.78630952380952,935.25,82.77946428571428C937.6666666666666,82.77261904761905,940.0833333333334,82.76577380952381,942.5,82.75892857142857C944.9166666666666,82.75208333333333,947.3333333333334,82.7452380952381,949.75,82.73839285714286C952.1666666666666,82.73154761904762,954.5833333333334,82.72470238095238,957,82.71785714285714C959.4166666666666,82.7110119047619,961.8333333333334,82.70416666666668,964.25,82.69732142857144C966.6666666666667,82.6904761904762,969.0833333333334,82.68363095238094,971.5000000000001,82.6767857142857C973.9166666666667,82.66994047619046,976.3333333333335,82.66309523809524,978.7500000000001,82.65625C981.1666666666667,82.64940476190476,983.5833333333335,82.64255952380954,986.0000000000001,82.6357142857143C988.4166666666667,82.62886904761906,990.8333333333335,82.62202380952381,993.2500000000001,82.61517857142857C995.6666666666667,82.60833333333333,998.0833333333333,82.6014880952381,1000.4999999999999,82.59464285714286C1002.9166666666665,82.58779761904762,1005.3333333333333,82.58095238095238,1007.7499999999999,82.57410714285714C1010.1666666666665,82.5672619047619,1012.5833333333333,82.56041666666667,1014.9999999999999,82.55357142857143C1017.4166666666665,82.54672619047619,1019.8333333333333,82.53988095238095,1022.2499999999999,82.53303571428572C1024.6666666666665,82.52619047619048,1027.0833333333333,82.51934523809524,1029.5,82.5125C1031.9166666666667,82.50565476190476,1034.3333333333333,82.49880952380954,1036.75,82.4919642857143C1039.1666666666667,82.48511904761907,1041.5833333333333,82.4782738095238,1044,82.47142857142856C1046.4166666666667,82.46458333333332,1048.8333333333333,82.4577380952381,1051.25,82.45089285714286C1053.6666666666667,82.44404761904762,1056.0833333333333,82.43720238095239,1058.5,82.43035714285715C1060.9166666666667,82.42351190476191,1063.3333333333333,82.41666666666667,1065.75,82.40982142857143C1068.1666666666667,82.4029761904762,1070.5833333333333,82.39613095238096,1073,82.38928571428572C1075.4166666666667,82.38244047619048,1077.8333333333333,82.37559523809524,1080.25,82.36875C1082.6666666666667,82.36190476190477,1085.0833333333333,82.35505952380953,1087.5,82.34821428571429C1089.9166666666667,82.34136904761905,1092.3333333333333,82.3345238095238,1094.75,82.32767857142856C1097.1666666666667,82.32083333333333,1099.5833333333333,82.3139880952381,1102,82.30714285714286C1104.4166666666667,82.30029761904763,1106.8333333333333,82.29345238095237,1109.25,82.28660714285714C1111.6666666666667,82.2797619047619,1114.0833333333333,82.27291666666666,1116.5,82.26607142857142C1118.9166666666667,82.25922619047618,1121.3333333333333,82.25238095238096,1123.75,82.24553571428572C1126.1666666666667,82.23869047619048,1128.5833333333333,82.23184523809523,1131,82.225C1133.4166666666667,82.21815476190476,1135.8333333333333,82.21130952380953,1138.25,82.2044642857143C1140.6666666666667,82.19761904761906,1143.0833333333333,82.1907738095238,1145.5,82.18392857142857C1147.9166666666667,82.17708333333333,1150.3333333333333,82.1702380952381,1152.75,82.16339285714287C1155.1666666666667,82.15654761904763,1157.5833333333333,82.15654761904763,1160,82.14285714285714C1162.4166666666667,82.12916666666665,1164.8333333333333,81.04761904761905,1167.25,80.5C1169.6666666666667,79.95238095238095,1172.0833333333333,79.40476190476191,1174.5,78.85714285714286C1176.9166666666667,78.30952380952381,1179.3333333333333,77.76190476190477,1181.75,77.21428571428572C1184.1666666666667,76.66666666666667,1186.5833333333333,76.11904761904762,1189,75.57142857142857C1191.4166666666667,75.02380952380952,1193.8333333333333,74.47619047619047,1196.25,73.92857142857142C1198.6666666666667,73.38095238095237,1201.0833333333333,72.83333333333331,1203.5,72.28571428571428C1205.9166666666667,71.73809523809524,1208.3333333333333,71.1904761904762,1210.75,70.64285714285715C1213.1666666666667,70.0952380952381,1215.5833333333333,69.54761904761904,1218,68.99999999999999C1220.4166666666667,68.45238095238093,1222.8333333333333,67.90476190476191,1225.25,67.35714285714286C1227.6666666666667,66.80952380952381,1230.0833333333333,66.26190476190476,1232.5,65.71428571428571C1234.9166666666667,65.16666666666666,1237.3333333333333,64.61904761904762,1239.75,64.07142857142857C1242.1666666666667,63.523809523809526,1244.5833333333333,62.97619047619048,1247,62.42857142857144C1249.4166666666667,61.880952380952394,1251.8333333333333,61.333333333333336,1254.25,60.785714285714285C1256.6666666666667,60.238095238095234,1259.0833333333333,59.69047619047618,1261.5,59.14285714285714C1263.9166666666667,58.595238095238095,1266.3333333333333,58.047619047619044,1268.75,57.5C1271.1666666666667,56.952380952380956,1273.5833333333333,56.404761904761905,1276,55.85714285714286C1278.4166666666667,55.30952380952382,1280.8333333333333,54.76190476190476,1283.25,54.214285714285715C1285.6666666666667,53.66666666666667,1288.0833333333333,53.11904761904763,1290.5,52.57142857142858C1292.9166666666667,52.023809523809526,1295.3333333333333,51.47619047619047,1297.75,50.92857142857142C1300.1666666666667,50.38095238095238,1302.5833333333333,49.833333333333336,1305,49.28571428571429C1307.4166666666667,48.73809523809525,1309.8333333333333,48.19047619047619,1312.25,47.64285714285714C1314.6666666666667,47.09523809523809,1317.0833333333333,46.547619047619044,1319.5,46C1321.9166666666667,45.452380952380956,1324.3333333333333,44.9047619047619,1326.75,44.357142857142854C1329.1666666666667,43.80952380952381,1331.5833333333333,43.26190476190476,1334,42.714285714285715C1336.4166666666667,42.16666666666667,1338.8333333333333,41.61904761904761,1341.25,41.07142857142857C1343.6666666666667,40.523809523809526,1346.0833333333333,39.976190476190474,1348.5,39.42857142857143C1350.9166666666667,38.88095238095239,1353.3333333333333,38.33333333333334,1355.75,37.78571428571429C1358.1666666666667,37.23809523809524,1360.5833333333333,36.69047619047618,1363,36.14285714285714C1365.4166666666667,35.595238095238095,1367.8333333333333,35.04761904761905,1370.25,34.50000000000001C1372.6666666666667,33.95238095238096,1375.0833333333333,33.404761904761905,1377.5,32.857142857142854C1379.9166666666667,32.3095238095238,1382.3333333333333,31.761904761904766,1384.75,31.21428571428572C1387.1666666666667,30.66666666666667,1389.5833333333333,30.119047619047617,1392,29.57142857142857C1394.4166666666667,29.023809523809522,1396.8333333333333,28.476190476190478,1399.25,27.92857142857143C1401.6666666666667,27.380952380952383,1404.0833333333333,26.833333333333332,1406.5,26.28571428571428C1408.9166666666667,25.73809523809523,1411.3333333333333,25.190476190476183,1413.75,24.64285714285713C1416.1666666666667,24.09523809523808,1418.5833333333333,23.547619047619026,1421,22.999999999999982C1423.4166666666667,22.45238095238094,1425.8333333333333,21.904761904761916,1428.25,21.357142857142872C1430.6666666666667,20.809523809523828,1433.0833333333333,20.261904761904773,1435.5,19.714285714285722C1437.9166666666667,19.16666666666667,1440.3333333333333,18.619047619047617,1442.75,18.07142857142857C1445.1666666666667,17.523809523809522,1447.5833333333333,16.976190476190478,1450,16.428571428571434" fill="transparent" stroke-linecap="round" stroke="#E7C6DF" stroke-width="2"></path><g class="visx-group visx-axis visx-axis-bottom" transform="translate(0, 115)"><g class="visx-group visx-axis-tick" transform="translate(0, 0)"><line class="visx-line" x1="0" y1="0" x2="0" y2="8" fill="transparent" shape-rendering="crispEdges" stroke="#000" stroke-width="0" stroke-linecap="square"></line><svg x="0" y="0" font-size="10" style="overflow:visible"><text transform="" x="0" y="18" fill="#000" font-size="10" text-anchor="middle"><tspan x="0" dy="0em">0%</tspan></text></svg></g><g class="visx-group visx-axis-tick" transform="translate(0, 0)"><line class="visx-line" x1="362.5" y1="0" x2="362.5" y2="8" fill="transparent" shape-rendering="crispEdges" stroke="#000" stroke-width="0" stroke-linecap="square"></line><svg x="0" y="0" font-size="10" style="overflow:visible"><text transform="" x="362.5" y="18" fill="#000" font-size="10" text-anchor="middle"><tspan x="362.5" dy="0em">25%</tspan></text></svg></g><g class="visx-group visx-axis-tick" transform="translate(0, 0)"><line class="visx-line" x1="725" y1="0" x2="725" y2="8" fill="transparent" shape-rendering="crispEdges" stroke="#000" stroke-width="0" stroke-linecap="square"></line><svg x="0" y="0" font-size="10" style="overflow:visible"><text transform="" x="725" y="18" fill="#000" font-size="10" text-anchor="middle"><tspan x="725" dy="0em">50%</tspan></text></svg></g><g class="visx-group visx-axis-tick" transform="translate(0, 0)"><line class="visx-line" x1="1087.5" y1="0" x2="1087.5" y2="8" fill="transparent" shape-rendering="crispEdges" stroke="#000" stroke-width="0" stroke-linecap="square"></line><svg x="0" y="0" font-size="10" style="overflow:visible"><text transform="" x="1087.5" y="18" fill="#000" font-size="10" text-anchor="middle"><tspan x="1087.5" dy="0em">75%</tspan></text></svg></g><g class="visx-group visx-axis-tick" transform="translate(0, 0)"><line class="visx-line" x1="1450" y1="0" x2="1450" y2="8" fill="transparent" shape-rendering="crispEdges" stroke="#000" stroke-width="0" stroke-linecap="square"></line><svg x="0" y="0" font-size="10" style="overflow:visible"><text transform="" x="1450" y="18" fill="#000" font-size="10" text-anchor="middle"><tspan x="1450" dy="0em">100%</tspan></text></svg></g><line class="visx-line visx-axis-line" x1="0.5" y1="0" x2="1450.5" y2="0" fill="transparent" shape-rendering="crispEdges" stroke="#222" stroke-width="0"></line></g><g class="visx-group visx-axis visx-axis-left" transform="translate(0, 0)"><g class="visx-group visx-axis-tick" transform="translate(0, 0)"><line class="visx-line" x1="0" y1="115" x2="-8" y2="115" fill="transparent" shape-rendering="crispEdges" stroke="#222" stroke-width="0" stroke-linecap="square"></line><svg x="-30" y="0" font-size="8" style="overflow:visible"><text transform="" x="-8" y="115" fill="#000" font-size="8" text-anchor="start"><tspan x="-8" dy="0em">0%</tspan></text></svg></g><g class="visx-group visx-axis-tick" transform="translate(0, 0)"><line class="visx-line" x1="0" y1="73.92857142857142" x2="-8" y2="73.92857142857142" fill="transparent" shape-rendering="crispEdges" stroke="#222" stroke-width="0" stroke-linecap="square"></line><svg x="-30" y="0" font-size="8" style="overflow:visible"><text transform="" x="-8" y="73.92857142857142" fill="#000" font-size="8" text-anchor="start"><tspan x="-8" dy="0em">50%</tspan></text></svg></g><g class="visx-group visx-axis-tick" transform="translate(0, 0)"><line class="visx-line" x1="0" y1="32.857142857142854" x2="-8" y2="32.857142857142854" fill="transparent" shape-rendering="crispEdges" stroke="#222" stroke-width="0" stroke-linecap="square"></line><svg x="-30" y="0" font-size="8" style="overflow:visible"><text transform="" x="-8" y="32.857142857142854" fill="#000" font-size="8" text-anchor="start"><tspan x="-8" dy="0em">100%</tspan></text></svg></g><line class="visx-line visx-axis-line" x1="0" y1="115.5" x2="0" y2="0.5" fill="transparent" shape-rendering="crispEdges" stroke="#222" stroke-width="0"></line></g><rect class="visx-bar" width="1450" height="115" fill="transparent"></rect><line class="visx-line" x1="1160" y1="28" x2="1160" y2="115" fill="transparent" shape-rendering="crispEdges" stroke="#0062D2" stroke-width="1" pointer-events="none" stroke-dasharray="5,2"></line><svg x="0" y="0" font-size="10px" style="overflow:visible"><text transform="" x="1160" y="20" font-size="10px" fill="#fff" stroke="#fff" stroke-width="0.8em" text-anchor="middle"><tspan x="1160" dy="0.355em">Optimal 80%</tspan></text></svg><svg x="0" y="0" font-size="10px" style="overflow:visible"><text transform="" x="1160" y="20" font-size="10px" fill="#62677B" text-anchor="middle"><tspan x="1160" dy="0.355em">Optimal 80%</tspan></text></svg></g></svg>